<svg width="700" height="90" viewBox="0 0 700 90" fill="none" xmlns="http://www.w3.org/2000/svg">
<g clip-path="url(#clip0_210_3054)">
<g clip-path="url(#clip1_210_3054)">
<rect width="160" height="90" rx="16" fill="white"/>
<g clip-path="url(#clip2_210_3054)">
<path d="M59.7892 51.2615C59.6372 50.8959 59.4946 50.5115 59.3426 50.1834L58.6393 48.6178L58.6107 48.5897C56.5199 44.0897 54.2864 39.5147 51.9199 35.0147L51.8249 34.8272C51.5873 34.3865 51.3497 33.899 51.1026 33.449C50.7984 32.9147 50.5038 32.3428 50.0191 31.799C49.5466 31.2301 48.952 30.7717 48.2782 30.457C47.6043 30.1422 46.868 29.979 46.1224 29.979C45.3769 29.979 44.6406 30.1422 43.9667 30.457C43.2929 30.7717 42.6982 31.2301 42.2258 31.799C41.7791 32.3428 41.4464 32.9147 41.1423 33.449C40.9047 33.9365 40.6671 34.4147 40.42 34.8553L40.325 35.0428C37.9965 39.5428 35.725 44.1178 33.6341 48.6178L33.5771 48.674C33.368 49.1615 33.1209 49.6678 32.8833 50.2115C32.7312 50.5397 32.5792 50.8959 32.4271 51.2897C32.0166 52.3207 31.8855 53.4395 32.0467 54.5358C32.208 55.632 32.6561 56.6679 33.3468 57.5413C34.0375 58.4147 34.947 59.0955 35.9856 59.5167C37.0243 59.9378 38.1563 60.0846 39.27 59.9428C40.3378 59.8041 41.3659 59.4533 42.2923 58.9115C43.5278 58.2272 44.7158 57.2334 46.0464 55.799C47.377 57.2334 48.5935 58.2272 49.8005 58.9209C50.9612 59.593 52.2757 59.9639 53.6211 59.999C55.1792 60.0054 56.6869 59.4556 57.8661 58.451C59.0452 57.4464 59.8161 56.0549 60.0363 54.5334C60.2909 53.4401 60.2048 52.2964 59.7892 51.2522V51.2615ZM46.1414 52.8178C44.5067 50.7553 43.4423 48.8615 43.0811 47.2397C42.9315 46.6387 42.8993 46.0151 42.9861 45.4022C43.0526 44.924 43.2332 44.5022 43.4803 44.1459C44.0506 43.3303 45.0485 42.824 46.1414 42.824C46.6605 42.8084 47.1754 42.9201 47.6398 43.1492C48.1043 43.3783 48.5038 43.7176 48.8026 44.1365C49.0497 44.5115 49.2303 44.924 49.2873 45.4022C49.3823 45.9459 49.3443 46.574 49.1922 47.2397C48.8311 48.8334 47.7666 50.7459 46.1414 52.8178ZM58.2496 54.2053C58.1416 54.9777 57.8303 55.7088 57.3467 56.3256C56.8632 56.9425 56.2242 57.4235 55.4934 57.7209C54.7711 58.0209 53.9728 58.1053 53.1934 58.0209C52.4331 57.9272 51.6728 57.6834 50.8935 57.2334C49.5995 56.4445 48.436 55.4643 47.4435 54.3272C49.4393 51.8897 50.6464 49.6678 51.1026 47.6897C51.3211 46.7522 51.3497 45.9084 51.2546 45.1303C51.1359 44.3928 50.8571 43.6892 50.4373 43.0678C49.9579 42.394 49.318 41.8467 48.5739 41.4739C47.8298 41.1012 47.0043 40.9145 46.17 40.9303C44.4117 40.9303 42.8435 41.7365 41.8931 43.0584C41.4653 43.6783 41.1888 44.3874 41.0853 45.1303C40.9617 45.9178 40.9903 46.7897 41.2374 47.6897C41.6936 49.6678 42.9291 51.9178 44.8964 54.3459C43.9208 55.5048 42.7545 56.4936 41.4464 57.2709C40.6576 57.7209 39.9068 57.9553 39.1465 58.049C37.9641 58.1985 36.7697 57.8815 35.8229 57.167C34.8761 56.4525 34.2535 55.3982 34.0903 54.2334C33.9953 53.4834 34.0618 52.7334 34.3659 51.8897C34.461 51.5897 34.6035 51.2897 34.7556 50.9334C34.9647 50.4459 35.2118 49.9397 35.4494 49.4334L35.4874 49.3678C37.5403 44.8959 39.7832 40.3303 42.1117 35.8584L42.2068 35.6709C42.4444 35.2209 42.682 34.7428 42.9291 34.2928C43.1762 33.8147 43.4423 33.3553 43.7844 32.9803C44.0806 32.6316 44.4507 32.3511 44.8686 32.1587C45.2865 31.9663 45.742 31.8665 46.2032 31.8665C46.6644 31.8665 47.12 31.9663 47.5379 32.1587C47.9558 32.3511 48.3258 32.6316 48.622 32.9803C48.9546 33.3553 49.2303 33.8147 49.4774 34.2928C49.715 34.7428 49.9526 35.2303 50.1997 35.6709L50.2947 35.8584C52.6137 40.3303 54.8566 44.8959 56.9475 49.3678L56.976 49.3959C57.2232 49.8834 57.4322 50.4272 57.6698 50.8959C57.8219 51.2615 57.974 51.5522 58.069 51.8615C58.2496 52.7053 58.3446 53.4553 58.2496 54.2053ZM71.4792 52.6115C70.763 52.6219 70.0537 52.473 69.4038 52.176C68.7539 51.879 68.1802 51.4415 67.7251 50.8959C66.7025 49.7334 66.1598 48.2344 66.2045 46.6959C66.1888 45.1239 66.7491 43.5992 67.7821 42.4022C68.26 41.8496 68.8549 41.4071 69.5248 41.1059C70.1948 40.8046 70.9235 40.6519 71.6598 40.6584C72.3526 40.6397 73.0388 40.7951 73.6539 41.11C74.2691 41.4249 74.7929 41.8889 75.1763 42.4584L75.2713 40.9865H78.0465V52.3115H75.2618L75.1668 50.6615C74.7716 51.2697 74.2253 51.768 73.5799 52.1093C72.9345 52.4506 72.2114 52.6235 71.4792 52.6115ZM72.2015 49.9115C72.7527 49.9115 73.2375 49.7615 73.6936 49.4897C74.1118 49.1897 74.454 48.7959 74.7201 48.3178C74.9577 47.8397 75.0812 47.2678 75.0812 46.6303C75.1183 46.0766 75.009 45.5229 74.7641 45.0234C74.5192 44.5238 74.1471 44.0955 73.6841 43.7803C73.2393 43.5069 72.7256 43.362 72.2015 43.362C71.6774 43.362 71.1637 43.5069 70.7189 43.7803C70.3007 44.0803 69.9586 44.474 69.6924 44.9522C69.4411 45.4795 69.3175 46.0572 69.3313 46.6397C69.2942 47.1934 69.4035 47.7471 69.6484 48.2466C69.8933 48.7462 70.2654 49.1745 70.7284 49.4897C71.1751 49.7615 71.6598 49.9115 72.2015 49.9115ZM82.7985 37.9303C82.7985 38.2584 82.7415 38.5584 82.5894 38.8022C82.4374 39.0365 82.2283 39.2522 81.9527 39.4022C81.677 39.5522 81.3824 39.6084 81.0783 39.6084C80.7742 39.6084 80.47 39.5522 80.1944 39.4022C79.9337 39.259 79.7145 39.0525 79.5576 38.8022C79.4105 38.5351 79.3383 38.2341 79.3485 37.9303C79.3485 37.5928 79.4151 37.2928 79.5576 37.0584C79.7097 36.7772 79.9283 36.6084 80.1944 36.4584C80.47 36.3084 80.7646 36.2428 81.0783 36.2428C81.3808 36.2359 81.68 36.3066 81.9465 36.4479C82.213 36.5892 82.4378 36.7964 82.5989 37.049C82.7372 37.3224 82.8058 37.6249 82.7985 37.9303ZM79.5671 52.274V40.9678H82.5894V52.2928H79.5576L79.5671 52.274ZM90.6679 43.9303V43.9678C90.5253 43.9022 90.3352 43.874 90.1927 43.8459C90.0026 43.8084 89.8505 43.8084 89.6699 43.8084C88.8241 43.8084 88.1873 44.0522 87.7691 44.5584C87.3129 45.074 87.1038 45.7959 87.1038 46.724V52.2834H84.0721V40.9584H86.8567L86.9518 42.674C87.2559 42.074 87.6171 41.624 88.1303 41.2865C88.6408 40.9586 89.2418 40.7949 89.8505 40.8178C90.0691 40.8178 90.2782 40.8365 90.4588 40.874C90.5538 40.9022 90.6108 40.9022 90.6679 40.9303V43.9303ZM91.8844 52.274V36.3178H94.9067V42.4115C95.3343 41.8678 95.819 41.4459 96.4273 41.1178C97.3903 40.6521 98.4842 40.52 99.5326 40.7428C100.581 40.9656 101.523 41.5304 102.206 42.3459C103.231 43.5109 103.773 45.0136 103.726 46.5553C103.742 48.1273 103.182 49.652 102.149 50.849C101.671 51.4016 101.076 51.8441 100.406 52.1454C99.7361 52.4466 99.0074 52.5994 98.2711 52.5928C97.5783 52.6115 96.8921 52.4561 96.2769 52.1412C95.6618 51.8264 95.1379 51.3623 94.7546 50.7928L94.6596 52.2647L91.8844 52.2928V52.274ZM97.7294 49.9115C98.2711 49.9115 98.7558 49.7615 99.212 49.4897C99.6302 49.1897 99.9723 48.7959 100.238 48.3178C100.486 47.8397 100.6 47.2678 100.6 46.6303C100.6 46.0022 100.486 45.4303 100.238 44.9522C99.9888 44.4911 99.6382 44.0908 99.212 43.7803C98.7671 43.5069 98.2535 43.362 97.7294 43.362C97.2052 43.362 96.6916 43.5069 96.2467 43.7803C95.819 44.0803 95.4864 44.474 95.2108 44.9522C94.9595 45.4795 94.8358 46.0572 94.8496 46.6397C94.8126 47.1934 94.9218 47.7471 95.1667 48.2466C95.4116 48.7462 95.7837 49.1745 96.2467 49.4897C96.6934 49.7615 97.1781 49.9115 97.7294 49.9115ZM104.867 52.2834V40.9584H107.652L107.747 42.4303C108.097 41.8661 108.593 41.4044 109.184 41.0928C109.776 40.7813 110.441 40.6314 111.111 40.6584C111.877 40.6454 112.63 40.8554 113.276 41.2623C113.922 41.6691 114.431 42.2548 114.742 42.9459C115.074 43.6584 115.255 44.5397 115.255 45.524V52.3115H112.223V45.9178C112.223 45.1303 112.042 44.5115 111.681 44.0522C111.32 43.6022 110.826 43.3584 110.199 43.3584C109.742 43.3584 109.343 43.4522 108.992 43.6584C108.659 43.874 108.383 44.1459 108.174 44.5303C107.963 44.9188 107.858 45.3551 107.87 45.7959V52.2834H104.867ZM116.766 52.2834V36.3084H119.798V42.4022C120.208 41.8554 120.743 41.4106 121.358 41.103C121.973 40.7954 122.653 40.6336 123.343 40.6303C124.059 40.62 124.768 40.7688 125.418 41.0658C126.068 41.3628 126.642 41.8003 127.097 42.3459C128.114 43.5108 128.653 45.0089 128.608 46.5459C128.624 48.1181 128.064 49.6431 127.03 50.8397C126.552 51.3922 125.958 51.8347 125.288 52.136C124.618 52.4373 123.889 52.59 123.153 52.5834C122.46 52.6021 121.774 52.4467 121.159 52.1319C120.543 51.817 120.019 51.353 119.636 50.7834L119.551 52.2553L116.766 52.2834ZM122.639 49.9115C123.191 49.9115 123.675 49.7615 124.122 49.4897C124.55 49.1897 124.882 48.7959 125.158 48.3178C125.396 47.8397 125.519 47.2678 125.519 46.6303C125.556 46.0766 125.447 45.5229 125.202 45.0234C124.957 44.5238 124.585 44.0955 124.122 43.7803C123.677 43.5069 123.164 43.362 122.639 43.362C122.115 43.362 121.602 43.5069 121.157 43.7803C120.739 44.0803 120.396 44.474 120.13 44.9522C119.865 45.4748 119.741 46.0559 119.769 46.6397C119.732 47.1934 119.841 47.7471 120.086 48.2466C120.331 48.7462 120.703 49.1745 121.166 49.4897C121.613 49.7615 122.069 49.9115 122.639 49.9115Z" fill="#FF385C"/>
</g>
</g>
<g clip-path="url(#clip3_210_3054)">
<rect x="180" width="160" height="90" rx="16" fill="white"/>
<g clip-path="url(#clip4_210_3054)">
<path fill-rule="evenodd" clip-rule="evenodd" d="M272.14 53.4609C266.507 57.725 258.342 60 251.312 60C241.454 60 232.58 56.256 225.866 50.0289C225.339 49.5392 225.811 48.8719 226.444 49.2532C233.69 53.5823 242.648 56.1866 251.902 56.1866C258.143 56.1866 265.009 54.8606 271.322 52.1089C272.275 51.6929 273.073 52.7502 272.14 53.4609Z" fill="#FF9900"/>
<path fill-rule="evenodd" clip-rule="evenodd" d="M274.483 50.7092C273.765 49.7646 269.723 50.2629 267.908 50.4839C267.355 50.5532 267.271 50.0592 267.769 49.7039C270.989 47.3769 276.272 48.0485 276.888 48.8286C277.504 49.6129 276.728 55.0513 273.702 57.647C273.238 58.0457 272.795 57.8333 273.001 57.3046C273.681 55.5626 275.204 51.6583 274.483 50.7092Z" fill="#FF9900"/>
<path fill-rule="evenodd" clip-rule="evenodd" d="M268.035 33.2761V31.014C268.035 30.6717 268.288 30.442 268.592 30.442H278.453C278.77 30.442 279.023 30.676 279.023 31.014V32.9511C279.019 33.2761 278.753 33.7007 278.28 34.3724L273.17 41.8648C275.069 41.8172 277.073 42.1075 278.795 43.1042C279.183 43.3295 279.289 43.6588 279.318 43.9838V46.3975C279.318 46.7269 278.964 47.1125 278.593 46.9132C275.559 45.2795 271.529 45.1019 268.174 46.9305C267.832 47.1212 267.473 46.7399 267.473 46.4105V44.1182C267.473 43.7498 267.478 43.1215 267.836 42.5625L273.757 33.8437H268.604C268.288 33.8437 268.035 33.6141 268.035 33.2761Z" fill="black"/>
<path fill-rule="evenodd" clip-rule="evenodd" d="M232.061 47.3899H229.061C228.774 47.3682 228.546 47.1472 228.525 46.8655V31.053C228.525 30.7367 228.782 30.4854 229.103 30.4854H231.901C232.192 30.4983 232.424 30.728 232.445 31.014V33.0811H232.5C233.23 31.0834 234.601 30.1517 236.449 30.1517C238.327 30.1517 239.5 31.0834 240.344 33.0811C241.07 31.0834 242.72 30.1517 244.488 30.1517C245.746 30.1517 247.121 30.6847 247.961 31.8807C248.91 33.2111 248.716 35.1437 248.716 36.8381L248.712 46.8179C248.712 47.1342 248.455 47.3899 248.134 47.3899H245.138C244.838 47.3682 244.598 47.1212 244.598 46.8179V38.4371C244.598 37.7698 244.657 36.1057 244.513 35.4731C244.29 34.4114 243.619 34.1124 242.75 34.1124C242.024 34.1124 241.264 34.6107 240.956 35.4081C240.648 36.2054 240.678 37.5401 240.678 38.4371V46.8179C240.678 47.1342 240.42 47.3899 240.1 47.3899H237.104C236.8 47.3682 236.563 47.1212 236.563 46.8179L236.559 38.4371C236.559 36.6734 236.842 34.0777 234.711 34.0777C232.555 34.0777 232.639 36.6084 232.639 38.4371V46.8179C232.639 47.1342 232.382 47.3899 232.061 47.3899" fill="black"/>
<path fill-rule="evenodd" clip-rule="evenodd" d="M287.513 30.1517C291.965 30.1517 294.374 34.0777 294.374 39.0698C294.374 43.8928 291.712 47.7192 287.513 47.7192C283.141 47.7192 280.761 43.7932 280.761 38.9008C280.761 33.9781 283.171 30.1517 287.513 30.1517ZM287.538 33.3801C285.327 33.3801 285.188 36.4741 285.188 38.4024C285.188 40.3351 285.158 44.4605 287.513 44.4605C289.838 44.4605 289.948 41.1325 289.948 39.1044C289.948 37.7698 289.893 36.1751 289.501 34.9097C289.163 33.8091 288.492 33.3801 287.538 33.3801Z" fill="black"/>
<path fill-rule="evenodd" clip-rule="evenodd" d="M300.147 47.3899H297.16C296.86 47.3682 296.619 47.1212 296.619 46.8179L296.615 31.001C296.641 30.7107 296.889 30.4854 297.193 30.4854H299.974C300.236 30.4983 300.451 30.6804 300.51 30.9274V33.3454H300.565C301.405 31.183 302.582 30.1517 304.654 30.1517C306 30.1517 307.312 30.65 308.156 32.015C308.941 33.2804 308.941 35.4081 308.941 36.9378V46.8915C308.907 47.1689 308.658 47.3899 308.363 47.3899H305.354C305.08 47.3682 304.852 47.1602 304.823 46.8915V38.3028C304.823 36.5738 305.017 34.0431 302.945 34.0431C302.215 34.0431 301.544 34.5457 301.211 35.3084C300.789 36.2748 300.734 37.2368 300.734 38.3028V46.8179C300.729 47.1342 300.468 47.3899 300.147 47.3899" fill="black"/>
<path fill-rule="evenodd" clip-rule="evenodd" d="M260.173 39.8368C260.173 41.0371 260.203 42.0381 259.612 43.1042C259.135 43.9708 258.376 44.5038 257.536 44.5038C256.384 44.5038 255.709 43.6025 255.709 42.2721C255.709 39.6461 258 39.1694 260.173 39.1694V39.8368ZM263.199 47.3465C263 47.5285 262.713 47.5415 262.49 47.4202C261.494 46.5709 261.313 46.1765 260.768 45.3662C259.122 47.0909 257.954 47.6065 255.823 47.6065C253.295 47.6065 251.333 46.0075 251.333 42.8052C251.333 40.3048 252.649 38.6018 254.531 37.7698C256.16 37.0331 258.435 36.9031 260.173 36.6994V36.3007C260.173 35.5684 260.228 34.7017 259.806 34.0691C259.443 33.5014 258.743 33.2674 258.122 33.2674C256.979 33.2674 255.962 33.8697 255.713 35.1177C255.662 35.3951 255.464 35.6681 255.19 35.6811L252.282 35.3604C252.037 35.3041 251.763 35.1004 251.835 34.7147C252.502 31.092 255.692 30 258.544 30C260.004 30 261.912 30.3987 263.064 31.534C264.524 32.9337 264.385 34.8014 264.385 36.8338V41.6351C264.385 43.0782 264.967 43.7108 265.515 44.4908C265.705 44.7682 265.748 45.1018 265.503 45.3098C264.891 45.8342 263.802 46.8092 263.203 47.3552L263.199 47.3465" fill="black"/>
<path fill-rule="evenodd" clip-rule="evenodd" d="M220.84 39.837C220.84 41.0373 220.87 42.0383 220.279 43.1043C219.802 43.971 219.047 44.504 218.203 44.504C217.051 44.504 216.38 43.6027 216.38 42.2723C216.38 39.6463 218.671 39.1696 220.84 39.1696V39.837ZM223.866 47.3467C223.668 47.5287 223.381 47.5417 223.157 47.4204C222.161 46.5711 221.984 46.1767 221.435 45.3664C219.79 47.0911 218.625 47.6067 216.49 47.6067C213.966 47.6067 212 46.0077 212 42.8053C212 40.305 213.321 38.602 215.199 37.77C216.827 37.0333 219.102 36.9033 220.84 36.6996V36.3009C220.84 35.5686 220.895 34.7019 220.478 34.0693C220.11 33.5016 219.41 33.2676 218.794 33.2676C217.65 33.2676 216.629 33.8699 216.38 35.1179C216.329 35.3953 216.131 35.6683 215.861 35.6813L212.949 35.3606C212.705 35.3043 212.435 35.1006 212.502 34.7149C213.173 31.0922 216.359 30.0002 219.212 30.0002C220.672 30.0002 222.579 30.3989 223.731 31.5342C225.191 32.9339 225.052 34.8016 225.052 36.834V41.6353C225.052 43.0784 225.634 43.711 226.183 44.491C226.377 44.7684 226.419 45.102 226.174 45.31C225.562 45.8344 224.474 46.8094 223.874 47.3554L223.866 47.3467" fill="black"/>
</g>
</g>
<g clip-path="url(#clip5_210_3054)">
<rect x="360" width="160" height="90" rx="16" fill="white"/>
<g clip-path="url(#clip6_210_3054)">
<path d="M462.931 58.2207L470.78 49.5615L462.931 40.901H471.212L475.1 45.1077L478.843 40.901H486.836L479.024 49.5257L486.943 58.2207H478.627L474.775 53.9795L470.959 58.2207H462.931Z" fill="#FF6600"/>
<path d="M462.931 37.0185H454.041V40.901H462.931V46.7522H454.041V52.1229H462.931V58.2208H447.507V30.9375H462.931V37.0185Z" fill="#FF6600"/>
<path d="M441.001 30.9375V42.1031H440.929C439.489 40.4775 437.689 39.9126 435.601 39.9126C431.324 39.9126 428.101 42.7677 426.97 46.5425C425.681 42.3832 422.354 39.8346 417.422 39.8346C413.416 39.8346 410.253 41.6001 408.602 44.4769V40.9014H400.322V37.0193H409.358V30.9375H392.941V58.2212H400.322V46.7522H407.679C407.459 47.5947 407.342 48.4967 407.342 49.4486C407.342 55.1399 411.77 59.1332 417.422 59.1332C422.174 59.1332 425.305 56.9427 426.962 52.9489H420.637C419.781 54.1487 419.132 54.505 417.422 54.505C415.438 54.505 413.728 52.8059 413.728 50.7917H426.607C427.166 55.3122 430.752 59.2108 435.674 59.2108C437.797 59.2108 439.741 58.1854 440.929 56.4541H441.001V58.2204H447.507V30.9375H441.001ZM413.934 46.8337C414.344 45.1008 415.713 43.9682 417.422 43.9682C419.303 43.9682 420.602 45.0659 420.944 46.8337C421.088 46.8337 413.934 46.8337 413.934 46.8337ZM437.052 54.0667C434.654 54.0667 433.164 51.8725 433.164 49.5816C433.164 47.1327 434.46 44.7778 437.052 44.7778C439.741 44.7778 440.811 47.1327 440.811 49.5816C440.811 51.9039 439.676 54.0667 437.052 54.0667Z" fill="#652C8F"/>
</g>
</g>
<g clip-path="url(#clip7_210_3054)">
<rect x="540" width="160" height="90" rx="16" fill="white"/>
<g clip-path="url(#clip8_210_3054)">
<path d="M603.119 46.8518L602.434 48.7791H602.377C602.263 48.3445 602.054 47.6831 601.712 46.8895L598.043 37.7253H594.45V52.3314H596.826V43.3183C596.826 42.7515 596.826 42.109 596.807 41.3154C596.788 40.9186 596.75 40.6163 596.731 40.3895H596.788C596.902 40.9564 597.035 41.3721 597.13 41.6366L601.541 52.2936H603.214L607.586 41.5422C607.681 41.2965 607.776 40.8052 607.871 40.3895H607.928C607.871 41.4666 607.833 42.4302 607.814 43.016V52.2747H610.343V37.6875H606.883L603.119 46.8518ZM612.738 41.8067H615.209V52.2747H612.738V41.8067ZM613.993 37.3852C613.574 37.3852 613.232 37.5363 612.947 37.8009C612.662 38.0654 612.51 38.4055 612.51 38.8212C612.51 39.218 612.662 39.5581 612.947 39.8227C613.232 40.0872 613.574 40.2195 613.993 40.2195C614.411 40.2195 614.772 40.0683 615.038 39.8227C615.323 39.5581 615.475 39.218 615.475 38.8212C615.475 38.4244 615.323 38.0843 615.038 37.8009C614.791 37.5363 614.43 37.3852 613.993 37.3852ZM623.973 41.7122C623.517 41.6177 623.042 41.5611 622.585 41.5611C621.464 41.5611 620.437 41.8067 619.582 42.298C618.726 42.7893 618.042 43.4695 617.605 44.3198C617.148 45.189 616.92 46.1904 616.92 47.343C616.92 48.3445 617.148 49.2326 617.586 50.0451C618.023 50.8387 618.631 51.4811 619.449 51.9157C620.228 52.3503 621.141 52.577 622.167 52.577C623.346 52.577 624.353 52.3314 625.152 51.8779L625.171 51.859V49.5916L625.076 49.6672C624.715 49.9317 624.296 50.1584 623.878 50.2907C623.441 50.4419 623.042 50.5175 622.699 50.5175C621.711 50.5175 620.931 50.234 620.38 49.6105C619.81 49.0058 619.525 48.1744 619.525 47.1352C619.525 46.0581 619.81 45.2079 620.399 44.5843C620.989 43.9608 621.768 43.6395 622.718 43.6395C623.517 43.6395 624.334 43.9041 625.076 44.4331L625.171 44.5087V42.109L625.152 42.0901C624.829 41.9579 624.467 41.8067 623.973 41.7122ZM632.129 41.6366C631.52 41.6366 630.95 41.8256 630.456 42.2224C630.038 42.5625 629.752 43.0538 629.505 43.6395H629.486V41.8067H627.015V52.2747H629.486V46.9273C629.486 46.0204 629.676 45.2645 630.095 44.7166C630.513 44.1497 631.045 43.8663 631.691 43.8663C631.92 43.8663 632.148 43.923 632.433 43.9608C632.699 44.0363 632.889 44.1119 633.022 44.2064L633.117 44.282V41.8256L633.06 41.8067C632.889 41.6933 632.547 41.6366 632.129 41.6366ZM638.858 41.58C637.128 41.58 635.741 42.0901 634.771 43.0916C633.783 44.093 633.307 45.4724 633.307 47.2108C633.307 48.8358 633.802 50.1584 634.752 51.1221C635.703 52.0669 636.995 52.5581 638.611 52.5581C640.303 52.5581 641.653 52.048 642.622 51.0276C643.611 50.0073 644.086 48.6468 644.086 46.9651C644.086 45.3023 643.63 43.9797 642.699 43.016C641.805 42.0523 640.493 41.58 638.858 41.58ZM640.835 49.6294C640.379 50.2151 639.657 50.4986 638.763 50.4986C637.87 50.4986 637.147 50.2151 636.634 49.5916C636.121 49.0058 635.874 48.1555 635.874 47.0785C635.874 45.9637 636.14 45.1134 636.634 44.5087C637.147 43.9041 637.851 43.6018 638.744 43.6018C639.619 43.6018 640.303 43.8852 640.797 44.4709C641.292 45.0567 641.558 45.907 641.558 47.0218C641.52 48.1555 641.311 49.0436 640.835 49.6294ZM649.599 46.1526C648.82 45.8314 648.326 45.5858 648.098 45.3779C647.907 45.189 647.812 44.9244 647.812 44.5843C647.812 44.3009 647.926 44.0174 648.212 43.8285C648.497 43.6395 648.82 43.5451 649.295 43.5451C649.713 43.5451 650.151 43.6206 650.569 43.734C650.987 43.8474 651.367 44.0175 651.671 44.2442L651.767 44.3198V42.0145L651.71 41.9956C651.424 41.8823 651.044 41.7689 650.588 41.6744C650.132 41.5988 649.713 41.5611 649.371 41.5611C648.193 41.5611 647.223 41.8445 646.463 42.468C645.702 43.0538 645.341 43.8474 645.341 44.7733C645.341 45.2645 645.417 45.6991 645.588 46.0581C645.759 46.4172 646.006 46.7573 646.349 47.0407C646.691 47.3052 647.185 47.6076 647.869 47.891C648.44 48.1366 648.877 48.3256 649.143 48.4768C649.409 48.6279 649.58 48.798 649.713 48.9302C649.808 49.0814 649.865 49.2704 649.865 49.516C649.865 50.2151 649.333 50.5552 648.25 50.5552C647.831 50.5552 647.394 50.4797 646.881 50.3096C646.368 50.1395 645.892 49.8939 645.493 49.6105L645.398 49.5349V51.9346L645.455 51.9535C645.816 52.1236 646.253 52.2369 646.786 52.3692C647.318 52.4637 647.793 52.5393 648.212 52.5393C649.485 52.5393 650.531 52.2558 651.272 51.6323C652.033 51.0276 652.432 50.2529 652.432 49.2515C652.432 48.5523 652.242 47.9288 651.824 47.4564C651.272 47.0029 650.588 46.5305 649.599 46.1526ZM658.953 41.58C657.223 41.58 655.835 42.0901 654.865 43.0916C653.896 44.093 653.401 45.4724 653.401 47.2108C653.401 48.8358 653.896 50.1584 654.846 51.1221C655.797 52.0669 657.089 52.5581 658.705 52.5581C660.397 52.5581 661.747 52.048 662.717 51.0276C663.705 50.0073 664.18 48.6468 664.18 46.9651C664.18 45.3023 663.724 43.9797 662.793 43.016C661.899 42.0523 660.587 41.58 658.953 41.58ZM660.911 49.6294C660.454 50.2151 659.732 50.4986 658.838 50.4986C657.926 50.4986 657.223 50.2151 656.709 49.5916C656.196 49.0058 655.949 48.1555 655.949 47.0785C655.949 45.9637 656.215 45.1134 656.709 44.5087C657.223 43.9041 657.926 43.6018 658.819 43.6018C659.675 43.6018 660.378 43.8852 660.873 44.4709C661.367 45.0567 661.633 45.907 661.633 47.0218C661.633 48.1555 661.386 49.0436 660.911 49.6294ZM677.393 43.8285V41.8067H674.902V38.7079L674.826 38.7268L672.469 39.4259L672.412 39.4448V41.8067H668.686V40.484C668.686 39.8794 668.838 39.407 669.104 39.1047C669.37 38.8023 669.77 38.6512 670.264 38.6512C670.606 38.6512 670.967 38.7268 671.366 38.8968L671.461 38.9535V36.8183L671.404 36.7994C671.062 36.6861 670.606 36.6105 670.017 36.6105C669.275 36.6105 668.629 36.7805 668.04 37.064C667.45 37.3852 667.013 37.8198 666.69 38.4055C666.367 38.9724 666.196 39.6148 666.196 40.3518V41.8067H664.466V43.8096H666.196V52.2747H668.686V43.8285H672.412V49.2137C672.412 51.4244 673.458 52.5393 675.549 52.5393C675.891 52.5393 676.252 52.4826 676.594 52.4259C676.955 52.3503 677.222 52.2558 677.374 52.1802L677.393 52.1613V50.1395L677.298 50.2151C677.146 50.3096 677.013 50.3852 676.784 50.4419C676.594 50.4986 676.423 50.5175 676.29 50.5175C675.796 50.5175 675.454 50.4041 675.207 50.1206C674.978 49.8561 674.864 49.4215 674.864 48.7791V43.8285H677.393Z" fill="#737373"/>
<path d="M562.588 32.8125H574.242V44.3953H562.588V32.8125Z" fill="#F25022"/>
<path d="M575.458 32.8125H587.112V44.3953H575.458V32.8125Z" fill="#7FBA00"/>
<path d="M562.588 45.6046H574.242V57.1875H562.588V45.6046Z" fill="#00A4EF"/>
<path d="M575.458 45.6046H587.112V57.1875H575.458V45.6046Z" fill="#FFB900"/>
</g>
</g>
</g>
<defs>
<clipPath id="clip0_210_3054">
<rect width="700" height="90" fill="white"/>
</clipPath>
<clipPath id="clip1_210_3054">
<rect width="160" height="90" fill="white"/>
</clipPath>
<clipPath id="clip2_210_3054">
<rect width="96.9412" height="30" fill="white" transform="translate(32 30)"/>
</clipPath>
<clipPath id="clip3_210_3054">
<rect width="160" height="90" fill="white" transform="translate(180)"/>
</clipPath>
<clipPath id="clip4_210_3054">
<rect width="96.9412" height="30" fill="white" transform="translate(212 30)"/>
</clipPath>
<clipPath id="clip5_210_3054">
<rect width="160" height="90" fill="white" transform="translate(360)"/>
</clipPath>
<clipPath id="clip6_210_3054">
<rect width="94.1176" height="28.125" fill="white" transform="translate(392.941 30.9375)"/>
</clipPath>
<clipPath id="clip7_210_3054">
<rect width="160" height="90" fill="white" transform="translate(540)"/>
</clipPath>
<clipPath id="clip8_210_3054">
<rect width="114.824" height="24.375" fill="white" transform="translate(562.588 32.8125)"/>
</clipPath>
</defs>
</svg>
