<svg width="700" height="90" viewBox="0 0 700 90" fill="none" xmlns="http://www.w3.org/2000/svg">
<g clip-path="url(#clip0_210_3086)">
<g clip-path="url(#clip1_210_3086)">
<rect width="160" height="90" rx="16" fill="white"/>
<g clip-path="url(#clip2_210_3086)">
<path d="M73.8139 45.3848C73.8139 49.5489 70.53 52.6174 66.4999 52.6174C62.4698 52.6174 59.1859 49.5489 59.1859 45.3848C59.1859 41.1913 62.4698 38.1522 66.4999 38.1522C70.53 38.1522 73.8139 41.1913 73.8139 45.3848ZM70.6122 45.3848C70.6122 42.7826 68.7089 41.0022 66.4999 41.0022C64.2909 41.0022 62.3876 42.7826 62.3876 45.3848C62.3876 47.9609 64.2909 49.7674 66.4999 49.7674C68.7089 49.7674 70.6122 47.9576 70.6122 45.3848Z" fill="#EA4335"/>
<path d="M89.5925 45.3848C89.5925 49.5489 86.3086 52.6174 82.2785 52.6174C78.2484 52.6174 74.9645 49.5489 74.9645 45.3848C74.9645 41.1946 78.2484 38.1522 82.2785 38.1522C86.3086 38.1522 89.5925 41.1913 89.5925 45.3848ZM86.3908 45.3848C86.3908 42.7826 84.4875 41.0022 82.2785 41.0022C80.0695 41.0022 78.1662 42.7826 78.1662 45.3848C78.1662 47.9609 80.0695 49.7674 82.2785 49.7674C84.4875 49.7674 86.3908 47.9576 86.3908 45.3848Z" fill="#FBBC05"/>
<path d="M104.714 38.5891V51.5739C104.714 56.9152 101.538 59.0967 97.7842 59.0967C94.2505 59.0967 92.1236 56.7522 91.3216 54.8348L94.1091 53.6837C94.6055 54.8609 95.8218 56.25 97.7809 56.25C100.184 56.25 101.673 54.7793 101.673 52.0109V50.9706H101.561C100.845 51.8478 99.464 52.6141 97.7218 52.6141C94.0762 52.6141 90.7365 49.4641 90.7365 45.4109C90.7365 41.3282 94.0762 38.1522 97.7218 38.1522C99.4607 38.1522 100.841 38.9185 101.561 39.7696H101.673V38.5924H104.714V38.5891ZM101.9 45.4109C101.9 42.8641 100.187 41.0022 98.0077 41.0022C95.7987 41.0022 93.948 42.8641 93.948 45.4109C93.948 47.9315 95.7987 49.7674 98.0077 49.7674C100.187 49.7674 101.9 47.9315 101.9 45.4109Z" fill="#4285F4"/>
<path d="M109.727 30.9783V52.1739H106.604V30.9783H109.727Z" fill="#34A853"/>
<path d="M121.896 47.7652L124.381 49.4087C123.579 50.5859 121.646 52.6141 118.306 52.6141C114.164 52.6141 111.071 49.4381 111.071 45.3815C111.071 41.0804 114.191 38.1489 117.948 38.1489C121.732 38.1489 123.582 41.1359 124.187 42.75L124.519 43.5718L114.773 47.5761C115.519 49.0272 116.679 49.7674 118.306 49.7674C119.937 49.7674 121.068 48.9718 121.896 47.7652ZM114.247 45.1631L120.762 42.4794C120.404 41.5761 119.325 40.9468 118.056 40.9468C116.429 40.9468 114.164 42.3718 114.247 45.1631Z" fill="#EA4335"/>
<path d="M47.3653 43.5033V40.4348H57.789C57.8909 40.9696 57.9435 41.6022 57.9435 42.287C57.9435 44.5891 57.3091 47.4359 55.2645 49.4641C53.2757 51.5185 50.7347 52.6141 47.3686 52.6141C41.1295 52.6141 35.8831 47.5728 35.8831 41.3837C35.8831 35.1946 41.1295 30.1533 47.3686 30.1533C50.8202 30.1533 53.279 31.4967 55.1264 33.2478L52.9437 35.413C51.619 34.1804 49.8242 33.2217 47.3653 33.2217C42.8093 33.2217 39.246 36.8641 39.246 41.3837C39.246 45.9033 42.8093 49.5457 47.3653 49.5457C50.3205 49.5457 52.0036 48.3685 53.0818 47.2989C53.9562 46.4315 54.5314 45.1924 54.7582 43.5L47.3653 43.5033Z" fill="#4285F4"/>
</g>
</g>
<g clip-path="url(#clip3_210_3086)">
<rect x="180" width="160" height="90" rx="16" fill="white"/>
<g clip-path="url(#clip4_210_3086)">
<path fill-rule="evenodd" clip-rule="evenodd" d="M295.177 43.9133L289.307 54.0705L284.299 54.0904L295.177 34.9724L306.016 54.0904H300.928L295.177 43.9123V43.9133ZM279.371 49.6688H284.98L282.376 54.0904H275.064L275.084 48.7065V35.0899H279.391L279.372 49.6688H279.371ZM263.986 35.0909C269.335 35.1108 273.662 39.3542 273.642 44.5996C273.622 49.8261 269.295 54.0705 263.945 54.0705C258.617 54.0506 254.289 49.8072 254.289 44.5608C254.309 39.3343 258.636 35.0909 263.986 35.0909ZM263.966 49.6498C266.831 49.6498 269.133 47.3897 269.133 44.5996C269.154 41.8106 266.831 39.5305 263.986 39.5305C261.141 39.5106 258.817 41.7907 258.817 44.5807C258.797 47.3698 261.121 49.6498 263.965 49.6498H263.966ZM246.317 43.0906C246.257 42.3036 246.056 41.2627 245.755 40.2616C245.137 38.1939 244.062 36.2929 242.61 34.7005C241.849 33.8757 240.988 33.1087 239.704 32.2052C238.726 31.7203 237.764 31.2027 236.82 30.6533C236.199 30.2997 235.458 29.8664 234.477 29.5526C233.314 29.2769 232.125 29.1257 230.93 29.1014C229.77 29.0616 228.606 29.1612 227.485 29.3763C226.303 29.5726 225.321 29.8863 224.018 30.2011C221.073 31.4781 218.79 33.4035 216.826 35.9585C209.975 45.5658 216.166 59.0251 227.605 60.6158C229.488 60.8718 231.372 60.7732 233.154 60.3608L234.416 60.0271C234.456 60.0072 234.516 59.9873 234.556 59.9873L235.999 59.4374C236.078 59.3976 236.139 59.3777 236.219 59.3388L236.82 59.0639C237.973 58.4923 239.056 57.7869 240.046 56.9622C239.145 57.7842 238.165 58.5146 237.121 59.1426L237.18 59.1824C237.382 59.1227 237.561 59.0639 237.762 59.0251C237.762 59.0251 237.762 59.3388 237.722 59.2801C237.402 59.5161 237.902 59.3 238.543 58.9653C239.185 58.6316 239.806 58.2182 240.366 57.7471C241.188 57.0598 241.909 56.3127 242.931 55.0955C243.972 53.2676 245.275 51.6759 245.876 49.5343C246.077 48.9645 246.256 48.2971 246.377 47.6088C246.496 46.9215 246.577 46.2143 246.577 45.4872C246.558 44.76 246.477 44.0129 246.317 43.0906ZM231.492 59.2412C234.997 58.6904 237.942 56.746 240.346 54.0934C241.008 53.1302 241.528 52.2457 242.169 51.2834C242.97 49.3181 242.911 47.57 243.171 46.3328C243.492 44.0916 242.73 42.2847 242.09 40.3593C241.108 38.1191 239.806 36.4496 237.522 35.1527C231.751 31.5767 223.898 32.5778 220.153 37.9228C220.133 37.9228 220.032 38.0603 219.831 38.3352C220.092 37.2355 220.754 36.5871 221.414 35.9575C223.378 34.3468 225.662 33.0689 228.266 32.4413C231.212 32.1265 234.136 32.4413 236.76 33.7183C240.687 35.9575 243.292 39.4757 243.952 43.6394V47.4913C243.131 53.7986 237.722 58.5928 231.492 59.2412ZM245.896 44.8975C245.755 35.6637 236.6 29.4351 227.685 30.6932C225.081 31.3406 222.235 32.6375 220.212 34.4455C219.23 35.0929 218.77 36.2922 217.788 37.2544C213.861 43.0119 214.543 50.38 219.431 54.8604C220.057 55.4829 220.727 56.0607 221.434 56.5896C217.348 54.1323 215.504 50.4178 214.863 45.9005C214.863 44.2889 215.184 42.6971 215.524 41.0864C217.809 34.0321 225 28.9042 232.834 30.2011C234.137 30.5159 235.439 30.8496 236.762 31.1643C238.404 31.8118 240.027 32.775 241.329 34.053C242.631 35.329 243.613 36.9407 244.595 38.5314C245.255 39.8094 245.577 41.4201 245.897 42.6971C245.957 43.4242 245.957 44.1713 245.897 44.8985L245.896 44.8975Z" fill="black"/>
<path fill-rule="evenodd" clip-rule="evenodd" d="M237.762 45.0359C237.762 49.0053 234.437 52.2277 230.33 52.2277C226.224 52.2277 222.898 49.0053 222.898 45.0359C222.898 41.0674 226.223 37.8451 230.33 37.8451C234.437 37.8451 237.762 41.0674 237.762 45.0369V45.0359Z" fill="white"/>
<path fill-rule="evenodd" clip-rule="evenodd" d="M237.803 43.8176C237.703 43.2678 237.542 42.8355 237.383 42.2268C236.741 40.8901 235.8 39.8492 234.557 38.9646C229.909 35.8807 223.518 38.8471 222.838 44.1135C222.578 46.1963 223.319 48.2004 224.641 49.7334C224.24 49.32 223.8 48.8887 223.5 48.3967L223.46 48.4365C223.5 48.554 223.66 48.6327 223.7 48.7503C223.7 48.7503 223.539 48.7503 223.58 48.7303C223.46 48.5939 223.56 48.81 223.74 49.1039C223.9 49.3987 224.101 49.6746 224.341 49.9296C224.682 50.3032 225.042 50.6369 225.643 51.0891C226.526 51.5403 227.306 52.13 228.328 52.4049C228.608 52.4846 228.929 52.5623 229.25 52.6211C229.59 52.6809 229.91 52.7008 230.271 52.7008C230.612 52.7008 230.973 52.6609 231.413 52.5812C231.867 52.5275 232.316 52.4359 232.755 52.3073C233.735 52.0109 234.639 51.5007 235.4 50.8132C235.781 50.4606 236.322 50.0083 236.742 49.4186C237.083 48.7513 237.123 48.4166 237.283 48.1217C237.443 47.8269 237.643 47.4932 237.784 47.041C237.899 46.5045 237.966 45.9588 237.985 45.4104C237.965 44.8605 237.925 44.3296 237.804 43.8186L237.803 43.8176ZM233.035 40.1639C233.716 40.5564 233.816 40.6152 233.455 40.3602C233.977 40.4777 234.297 40.7726 234.617 41.0674C235.399 41.9519 236.04 42.9928 236.36 44.1911C236.541 45.5468 236.4 46.9025 235.819 48.1018C234.778 49.9286 233.115 51.1469 231.131 51.4806C230.911 51.4806 230.671 51.4806 230.45 51.5005C231.011 51.4019 231.372 51.0483 232.394 50.6747C233.495 50.2823 234.737 48.4554 235.339 47.3936C237.102 44.5049 235.018 41.8334 233.035 40.1639ZM229.269 51.5194C226.224 51.2056 223.879 48.7104 223.559 45.8218C223.839 47.4334 224.801 48.6706 226.103 49.7713C226.564 50.0661 227.245 50.4785 227.706 50.7733C228.487 51.0682 228.947 51.3829 229.709 51.5204H229.269V51.5194ZM237.462 46.274C237.323 46.8836 237.182 47.4723 237.041 48.0819C236.741 48.829 236.301 49.595 235.699 50.2036C235.098 50.8132 234.337 51.2843 233.576 51.7366C232.975 52.0503 232.213 52.2077 231.593 52.3641C231.232 52.4039 230.811 52.2466 230.45 52.2276C234.898 52.1091 237.943 47.9644 237.282 43.8575C236.961 42.6592 236.32 41.6172 235.539 40.5763C235.218 40.1241 234.597 39.8492 234.136 39.3969C231.352 37.6488 227.666 38.0024 225.563 40.3014C225.268 40.6035 224.993 40.925 224.74 41.2636C225.863 39.6131 227.666 38.4546 229.829 38.12C230.591 38.1 231.372 38.2385 232.133 38.376C235.499 39.3969 238.003 42.6592 237.462 46.275V46.274Z" fill="#D7DF23"/>
</g>
</g>
<g clip-path="url(#clip5_210_3086)">
<rect x="360" width="160" height="90" rx="16" fill="white"/>
<g clip-path="url(#clip6_210_3086)">
<path d="M423.722 41.2118V42.6994H423.768C424.307 41.9029 425.203 40.9649 427.188 40.9649C428.733 40.9649 429.917 41.7449 430.425 42.9232H430.471C430.905 42.3275 431.402 41.8766 431.959 41.5573C432.618 41.1788 433.352 40.9616 434.275 40.9616C436.366 40.9616 438.217 42.311 438.217 45.7142V52.1683H435.03V46.1651C435.03 44.4405 434.402 43.4432 433.098 43.4432C432.142 43.4432 431.448 44.0422 431.183 44.7795C431.091 45.0329 431.049 45.3785 431.049 45.6681V52.1716H427.862V45.9215C427.862 44.4569 427.259 43.4399 425.972 43.4399C424.942 43.4399 424.297 44.1969 424.032 44.8453C423.92 45.1218 423.884 45.441 423.884 45.7405V52.1683H420.693V41.2118H423.722ZM454.67 41.2118V43.2787H454.758C455.343 41.6989 456.732 40.9649 457.952 40.9649C458.259 40.9649 458.428 40.988 458.675 41.034V43.904C458.383 43.8645 458.111 43.825 457.73 43.825C456.348 43.825 455.385 44.5754 455.142 45.7504C455.089 45.9939 455.072 46.2572 455.072 46.56V52.1716H451.8V41.2118H454.67ZM463.118 37.5815V41.0307H465.882V43.8217H463.118V47.9391C463.118 49.272 463.481 49.9171 464.56 49.9171C465.068 49.9171 465.442 49.8579 465.766 49.7822L465.808 52.0959C465.375 52.2473 464.451 52.4119 463.513 52.4119C462.409 52.4119 461.489 52.0531 460.928 51.4969C460.287 50.8617 459.99 49.8217 459.99 48.3406V37.5815H463.118ZM418.472 52.1683H415.299V37.5815H418.472V52.1683ZM410.01 48.255C410.01 48.4558 409.992 48.6664 409.932 48.8475C409.685 49.6077 408.842 50.2495 407.792 50.2495C406.914 50.2495 406.216 49.7855 406.216 48.8014C406.216 47.2973 407.993 46.8793 410.013 46.8892V48.255H410.01ZM413.179 45.6319C413.179 43.147 412.044 40.9649 408.204 40.9649C406.233 40.9649 404.668 41.4816 403.814 41.9424L404.439 43.9369C405.218 43.4761 406.462 43.0976 407.64 43.0976C409.59 43.0944 409.907 44.1278 409.907 44.7894V44.9473C405.659 44.9407 402.975 46.3132 402.975 49.1108C402.975 50.8189 404.34 52.4185 406.716 52.4185C408.18 52.4185 409.4 51.8754 410.133 51.0032H410.204C410.204 51.0032 410.69 52.8957 413.363 52.1716C413.222 51.3817 413.176 50.5425 413.176 49.532V45.6319H413.179ZM387.034 37.5815C387.362 39.1251 388.293 43.6078 388.293 43.6078C388.684 45.4509 389.044 47.3829 389.316 48.91H389.365C389.629 47.2874 390.045 45.7504 390.49 43.8481L392.059 37.5815H395.532L396.999 44.0093C397.383 45.7965 397.69 47.1755 397.933 48.8376H397.979C398.243 47.1591 398.589 45.7241 398.966 43.8875L400.377 37.5815H403.709L399.58 52.1683C396.949 52.7048 395.941 51.7174 395.581 50.1508C395.222 48.5809 394.516 45.5957 394.516 45.5957C394.153 43.96 393.871 42.808 393.674 41.1295H393.624C393.342 42.7916 393.046 43.9567 392.609 45.5924L390.878 52.1716C388.191 52.6719 387.26 51.9314 386.745 49.9204C386.301 48.1991 383.529 37.5848 383.529 37.5848H387.034V37.5815ZM446.511 48.255C446.511 48.4558 446.493 48.6664 446.433 48.8475C446.186 49.6077 445.343 50.2495 444.293 50.2495C443.415 50.2495 442.717 49.7855 442.717 48.8014C442.717 47.2973 444.494 46.8793 446.514 46.8892V48.255H446.511ZM449.68 45.6319C449.68 43.147 448.545 40.9649 444.705 40.9649C442.734 40.9649 441.169 41.4816 440.315 41.9424L440.94 43.9369C441.719 43.4761 442.963 43.0976 444.141 43.0976C446.087 43.0944 446.408 44.1278 446.408 44.7894V44.9473C442.163 44.9407 439.48 46.3132 439.48 49.1108C439.48 50.8189 440.848 52.4185 443.221 52.4185C444.681 52.4185 445.904 51.8754 446.634 51.0032H446.708C446.708 51.0032 447.195 52.8957 449.867 52.1716C449.726 51.3817 449.68 50.5425 449.68 49.532V45.6319Z" fill="#041E42"/>
<path d="M478.746 47.1445C479.059 47.6772 479.038 48.2718 478.704 48.5433L472.933 52.499C472.332 52.8393 471.432 52.4268 470.923 51.5642C470.409 50.6982 470.501 49.7324 471.102 49.3922L477.491 46.4847C477.892 46.3335 478.433 46.6118 478.746 47.1445ZM486.341 47.1445C486.658 46.6118 487.195 46.3369 487.596 46.4812L493.989 49.3887C494.59 49.729 494.678 50.6947 494.169 51.5608C493.655 52.4234 492.752 52.8324 492.155 52.4956L486.384 48.5399C486.053 48.2718 486.029 47.6738 486.341 47.1445ZM482.542 49.2891C483.171 49.2891 483.688 49.6053 483.758 50.0211L484.38 56.8878C484.38 57.5682 483.568 58.125 482.546 58.125C481.526 58.125 480.711 57.5682 480.711 56.8878L481.329 50.0211C481.4 49.6053 481.916 49.2891 482.542 49.2891ZM486.384 41.4601L492.155 37.501C492.752 37.1607 493.655 37.5697 494.169 38.4358C494.678 39.3018 494.59 40.2676 493.989 40.6078L487.596 43.5188C487.195 43.6631 486.654 43.3882 486.341 42.8555C486.029 42.3228 486.053 41.7282 486.384 41.4601ZM477.491 43.5188L471.102 40.6078C470.504 40.2676 470.413 39.3018 470.923 38.4358C471.432 37.5697 472.335 37.1607 472.933 37.501L478.704 41.4601C479.038 41.7248 479.059 42.3228 478.746 42.8555C478.433 43.3882 477.892 43.6631 477.491 43.5188ZM481.329 39.9789L480.711 33.1122C480.711 32.4318 481.523 31.875 482.546 31.875C483.568 31.875 484.38 32.4318 484.38 33.1122L483.758 39.9789C483.688 40.3913 483.171 40.7109 482.542 40.7109C481.916 40.7109 481.4 40.3913 481.329 39.9789ZM495.729 52.4715V52.2997H495.887C495.94 52.2997 495.975 52.3341 495.975 52.3856C495.975 52.4337 495.94 52.4715 495.887 52.4715H495.729ZM495.599 52.7843C495.599 52.8015 495.613 52.8186 495.634 52.8186H495.701C495.718 52.8186 495.736 52.8015 495.736 52.7843V52.5884H495.845L495.933 52.7946C495.94 52.8083 495.95 52.8186 495.965 52.8186H496.045C496.07 52.8186 496.088 52.7946 496.077 52.7705C496.045 52.7087 496.014 52.6434 495.982 52.5781C496.035 52.5609 496.116 52.5093 496.116 52.3856C496.116 52.255 496.007 52.1794 495.898 52.1794H495.634C495.617 52.1794 495.599 52.1966 495.599 52.2138V52.7843ZM495.314 52.499C495.314 52.2206 495.546 51.9938 495.831 51.9938C496.116 51.9938 496.348 52.2172 496.348 52.499C496.348 52.7774 496.119 53.0042 495.831 53.0042C495.543 53.0042 495.314 52.7774 495.314 52.499ZM495.191 52.499C495.191 52.8427 495.476 53.1245 495.831 53.1245C496.182 53.1245 496.471 52.8427 496.471 52.499C496.471 52.1553 496.182 51.8735 495.831 51.8735C495.476 51.8735 495.191 52.1553 495.191 52.499Z" fill="#FFC124"/>
</g>
</g>
<g clip-path="url(#clip7_210_3086)">
<rect x="540" width="160" height="90" rx="16" fill="white"/>
<g clip-path="url(#clip8_210_3086)">
<path d="M645.472 58.725C652.981 58.725 659.091 52.5405 659.091 44.94C659.091 37.335 652.981 31.155 645.472 31.155C637.961 31.155 631.853 37.335 631.853 44.94C631.853 52.5405 637.961 58.725 645.472 58.725ZM645.472 40.0245C648.148 40.0245 650.327 42.2295 650.327 44.9385C650.327 47.6475 648.146 49.8495 645.47 49.8495C642.793 49.8495 640.616 47.6475 640.616 44.937C640.616 42.225 642.794 40.0215 645.47 40.0215L645.472 40.0245ZM594.09 58.725C601.599 58.725 607.709 52.5405 607.709 44.94C607.709 37.335 601.599 31.155 594.09 31.155C586.582 31.155 580.471 37.335 580.471 44.94C580.471 52.5405 586.582 58.725 594.09 58.725ZM594.09 40.0245C596.767 40.0245 598.945 42.2295 598.945 44.9385C598.945 47.6475 596.767 49.8495 594.09 49.8495C591.414 49.8495 589.237 47.6475 589.237 44.937C589.237 42.225 591.415 40.0215 594.09 40.0215V40.0245ZM619.773 39.714L615.592 31.335H605.802L614.946 49.665V58.2945H624.602V49.665L633.746 31.335H623.951L619.775 39.714H619.773Z" fill="#EE2E24"/>
</g>
</g>
</g>
<defs>
<clipPath id="clip0_210_3086">
<rect width="700" height="90" fill="white"/>
</clipPath>
<clipPath id="clip1_210_3086">
<rect width="160" height="90" fill="white"/>
</clipPath>
<clipPath id="clip2_210_3086">
<rect width="89.4118" height="30" fill="white" transform="translate(35.7647 30)"/>
</clipPath>
<clipPath id="clip3_210_3086">
<rect width="160" height="90" fill="white" transform="translate(180)"/>
</clipPath>
<clipPath id="clip4_210_3086">
<rect width="92.2353" height="31.875" fill="white" transform="translate(213.882 29.0625)"/>
</clipPath>
<clipPath id="clip5_210_3086">
<rect width="160" height="90" fill="white" transform="translate(360)"/>
</clipPath>
<clipPath id="clip6_210_3086">
<rect width="112.941" height="26.25" fill="white" transform="translate(383.529 31.875)"/>
</clipPath>
<clipPath id="clip7_210_3086">
<rect width="160" height="90" fill="white" transform="translate(540)"/>
</clipPath>
<clipPath id="clip8_210_3086">
<rect width="79.0588" height="30" fill="white" transform="translate(580.471 30)"/>
</clipPath>
</defs>
</svg>
