<svg id="Layer_1" data-name="Layer 1" xmlns="http://www.w3.org/2000/svg" xmlns:xlink="http://www.w3.org/1999/xlink" viewBox="0 0 1080 1080"><defs><style>.cls-1{fill:#fff;}.cls-2{fill:url(#New_Gradient_Swatch);}.cls-3{fill:url(#New_Gradient_Swatch-2);}.cls-4{fill:url(#New_Gradient_Swatch-3);}.cls-5{fill:url(#New_Gradient_Swatch-4);}.cls-6{fill:url(#New_Gradient_Swatch-5);}.cls-7{fill:url(#New_Gradient_Swatch-6);}.cls-8{fill:url(#New_Gradient_Swatch-7);}.cls-9{fill:url(#New_Gradient_Swatch-8);}.cls-10{fill:url(#New_Gradient_Swatch-9);}.cls-11{fill:url(#New_Gradient_Swatch-10);}.cls-12{fill:url(#New_Gradient_Swatch-11);}.cls-13{fill:url(#New_Gradient_Swatch-12);}.cls-14{fill:url(#linear-gradient);}.cls-15{fill:url(#linear-gradient-2);}.cls-16{fill:url(#linear-gradient-3);}.cls-17{fill:url(#linear-gradient-4);}.cls-18{fill:url(#linear-gradient-5);}.cls-19{fill:url(#linear-gradient-6);}.cls-20{fill:url(#linear-gradient-7);}.cls-21{fill:url(#linear-gradient-8);}.cls-22{fill:url(#linear-gradient-9);}.cls-23{fill:url(#linear-gradient-10);}.cls-24{fill:url(#linear-gradient-11);}.cls-25{fill:url(#linear-gradient-12);}.cls-26{fill:url(#linear-gradient-13);}.cls-27{fill:url(#linear-gradient-14);}.cls-28{fill:url(#linear-gradient-15);}.cls-29{fill:url(#linear-gradient-16);}.cls-30{fill:url(#linear-gradient-17);}.cls-31{fill:url(#linear-gradient-18);}.cls-32{fill:url(#linear-gradient-19);}</style><linearGradient id="New_Gradient_Swatch" x1="499.92" y1="547.79" x2="549.65" y2="547.79" gradientUnits="userSpaceOnUse"><stop offset="0" stop-color="#306"/><stop offset="1" stop-color="#9d4ccc"/></linearGradient><linearGradient id="New_Gradient_Swatch-2" x1="559.46" y1="547.07" x2="620.46" y2="547.07" xlink:href="#New_Gradient_Swatch"/><linearGradient id="New_Gradient_Swatch-3" x1="624.64" y1="547.07" x2="696.46" y2="547.07" xlink:href="#New_Gradient_Swatch"/><linearGradient id="New_Gradient_Swatch-4" x1="700.28" y1="547.07" x2="757.64" y2="547.07" xlink:href="#New_Gradient_Swatch"/><linearGradient id="New_Gradient_Swatch-5" x1="755" y1="547.07" x2="824.45" y2="547.07" xlink:href="#New_Gradient_Swatch"/><linearGradient id="New_Gradient_Swatch-6" x1="507.28" y1="628.44" x2="570.01" y2="628.44" xlink:href="#New_Gradient_Swatch"/><linearGradient id="New_Gradient_Swatch-7" x1="577.83" y1="628.44" x2="649.64" y2="628.44" xlink:href="#New_Gradient_Swatch"/><linearGradient id="New_Gradient_Swatch-8" x1="657.46" y1="628.44" x2="733.82" y2="628.44" xlink:href="#New_Gradient_Swatch"/><linearGradient id="New_Gradient_Swatch-9" x1="744.18" y1="628.44" x2="797.09" y2="628.44" xlink:href="#New_Gradient_Swatch"/><linearGradient id="New_Gradient_Swatch-10" x1="801.36" y1="628.44" x2="858.72" y2="628.44" xlink:href="#New_Gradient_Swatch"/><linearGradient id="New_Gradient_Swatch-11" x1="238.7" y1="557.87" x2="473.04" y2="557.87" xlink:href="#New_Gradient_Swatch"/><linearGradient id="New_Gradient_Swatch-12" x1="221.28" y1="468.58" x2="490" y2="468.58" xlink:href="#New_Gradient_Swatch"/><linearGradient id="linear-gradient" x1="706.2" y1="1529" x2="750.03" y2="1529" gradientTransform="translate(703.04 -1075.99) rotate(36.04)" gradientUnits="userSpaceOnUse"><stop offset="0" stop-color="#ed1c24"/><stop offset="1" stop-color="#9d4ccc"/></linearGradient><linearGradient id="linear-gradient-2" x1="614.54" y1="1555.37" x2="688.67" y2="1555.37" xlink:href="#linear-gradient"/><linearGradient id="linear-gradient-3" x1="684.32" y1="1509.97" x2="718.36" y2="1509.97" xlink:href="#linear-gradient"/><linearGradient id="linear-gradient-4" x1="642.84" y1="1554.26" x2="707.11" y2="1554.26" xlink:href="#linear-gradient"/><linearGradient id="linear-gradient-5" x1="643.4" y1="1481.72" x2="710.84" y2="1481.72" xlink:href="#linear-gradient"/><linearGradient id="linear-gradient-6" x1="670.96" y1="1576.72" x2="713.16" y2="1576.72" xlink:href="#linear-gradient"/><linearGradient id="linear-gradient-7" x1="639.37" y1="1524.54" x2="669.1" y2="1524.54" xlink:href="#linear-gradient"/><linearGradient id="linear-gradient-8" x1="660.56" y1="1535.8" x2="690.25" y2="1535.8" xlink:href="#linear-gradient"/><linearGradient id="linear-gradient-9" x1="660.06" y1="1608.95" x2="719.5" y2="1608.95" gradientTransform="translate(703.04 -1075.99) rotate(36.04)" gradientUnits="userSpaceOnUse"><stop offset="0" stop-color="#00a651"/><stop offset="1" stop-color="#006838"/></linearGradient><linearGradient id="linear-gradient-10" x1="676.28" y1="1505.24" x2="698.02" y2="1505.24" xlink:href="#linear-gradient"/><linearGradient id="linear-gradient-11" x1="735.84" y1="1558.18" x2="766.88" y2="1558.18" xlink:href="#linear-gradient-9"/><linearGradient id="linear-gradient-12" x1="660.34" y1="1497.91" x2="697.37" y2="1497.91" xlink:href="#linear-gradient"/><linearGradient id="linear-gradient-13" x1="744.91" y1="1545.4" x2="761.81" y2="1545.4" xlink:href="#linear-gradient-9"/><linearGradient id="linear-gradient-14" x1="634.31" y1="1551.89" x2="644.24" y2="1551.89" xlink:href="#linear-gradient"/><linearGradient id="linear-gradient-15" x1="669.39" y1="1507.95" x2="681.56" y2="1507.95" xlink:href="#linear-gradient"/><linearGradient id="linear-gradient-16" x1="660.25" y1="1593.91" x2="679.06" y2="1593.91" xlink:href="#linear-gradient"/><linearGradient id="linear-gradient-17" x1="660.47" y1="1510.81" x2="671.37" y2="1510.81" xlink:href="#linear-gradient"/><linearGradient id="linear-gradient-18" x1="651.52" y1="1550.8" x2="662.05" y2="1550.8" xlink:href="#linear-gradient"/><linearGradient id="linear-gradient-19" x1="698.56" y1="1534.19" x2="708.02" y2="1534.19" xlink:href="#linear-gradient"/></defs><title>Artboard 3</title><rect class="cls-1" x="0.65" y="0.65" width="1078.7" height="1078.7"/><path class="cls-2" d="M523.38,580.34a36,36,0,0,1-13.46-2.41,25.62,25.62,0,0,1-10-7l11.55-13.63a22.46,22.46,0,0,0,5,4.68,9.21,9.21,0,0,0,5.09,1.59q6.9,0,6.91-7.91V531.43H506.83V515.25h42.82v39.09q0,13.08-6.73,19.54T523.38,580.34Z"/><path class="cls-3" d="M559.46,578.88V515.25H590.1a37.5,37.5,0,0,1,15.41,2.91,22,22,0,0,1,13.59,21.09,21.47,21.47,0,0,1-13.59,20.81,38.55,38.55,0,0,1-15.41,2.82H571.37l9.55-8.82v24.82Zm21.46-22.45-9.55-9.73h17.37c3,0,5.16-.66,6.59-2a8.05,8.05,0,0,0,0-10.91q-2.15-2-6.59-2H571.37l9.55-9.72Zm16.63,22.45L581.92,555.7h22.72l15.82,23.18Z"/><path class="cls-4" d="M660.55,580.34a40.67,40.67,0,0,1-14.32-2.46,33.78,33.78,0,0,1-11.41-7,31.85,31.85,0,0,1-7.49-10.59,34.2,34.2,0,0,1,0-26.59,32,32,0,0,1,7.49-10.55,33.78,33.78,0,0,1,11.41-7,43,43,0,0,1,28.68,0,33.79,33.79,0,0,1,11.37,7,32.17,32.17,0,0,1,7.5,10.55,34.32,34.32,0,0,1,0,26.59,32,32,0,0,1-7.5,10.59,33.79,33.79,0,0,1-11.37,7A40.5,40.5,0,0,1,660.55,580.34Zm0-17.37a14.22,14.22,0,0,0,5.59-1.09,13.43,13.43,0,0,0,4.55-3.13,14.43,14.43,0,0,0,3-5,21,21,0,0,0,0-13.37,14.52,14.52,0,0,0-3-5,13.43,13.43,0,0,0-4.55-3.13,14.88,14.88,0,0,0-11.18,0,13.43,13.43,0,0,0-4.55,3.13,14.52,14.52,0,0,0-3,5,21,21,0,0,0,0,13.37,14.43,14.43,0,0,0,3,5,13.43,13.43,0,0,0,4.55,3.13A14.22,14.22,0,0,0,660.55,563Z"/><path class="cls-5" d="M728,580.34a65.08,65.08,0,0,1-15.45-1.82,43.84,43.84,0,0,1-12.27-4.73l6.91-15.63a44.25,44.25,0,0,0,10.13,4.22A39.65,39.65,0,0,0,728.18,564a22.25,22.25,0,0,0,4.87-.41,5.54,5.54,0,0,0,2.59-1.18,2.47,2.47,0,0,0,.82-1.86,3,3,0,0,0-1.91-2.73,20.49,20.49,0,0,0-5-1.68c-2.09-.45-4.38-.94-6.86-1.45a64.42,64.42,0,0,1-7.5-2,29.33,29.33,0,0,1-6.91-3.36,15.78,15.78,0,0,1-5-5.5,17.16,17.16,0,0,1-1.91-8.5,18.69,18.69,0,0,1,3.31-10.77,22.71,22.71,0,0,1,9.91-7.78q6.6-2.91,16.41-2.91a59.72,59.72,0,0,1,12.73,1.37,40.16,40.16,0,0,1,11.27,4.18l-6.45,15.54a49.48,49.48,0,0,0-9.14-3.54,33,33,0,0,0-8.59-1.18,17.86,17.86,0,0,0-4.91.54,5.35,5.35,0,0,0-2.59,1.46,3,3,0,0,0-.77,2,2.89,2.89,0,0,0,1.91,2.59,20.7,20.7,0,0,0,5,1.59c2.09.42,4.4.88,6.91,1.36a57,57,0,0,1,7.5,2,29.38,29.38,0,0,1,6.86,3.37,15.83,15.83,0,0,1,5.05,5.45,16.76,16.76,0,0,1,1.91,8.36,18.56,18.56,0,0,1-3.32,10.68,23,23,0,0,1-9.86,7.82Q737.91,580.34,728,580.34Z"/><path class="cls-6" d="M779,578.88V551l4.91,12.82L755,515.25h22.64l19.54,33.18H784l19.73-33.18h20.72l-28.72,48.54L800.45,551v27.91Z"/><path class="cls-7" d="M528.74,660.26H507.28V596.62h21.46ZM550,636.8H527.28V619.17H550Zm-1.45-40.18H570v63.64H548.56Z"/><path class="cls-8" d="M613.73,661.71a40.57,40.57,0,0,1-14.31-2.45,33.76,33.76,0,0,1-11.41-7,31.73,31.73,0,0,1-7.5-10.59,34.32,34.32,0,0,1,0-26.59,31.84,31.84,0,0,1,7.5-10.54,33.76,33.76,0,0,1,11.41-7,43.19,43.19,0,0,1,28.68,0,33.93,33.93,0,0,1,11.36,7,32.13,32.13,0,0,1,7.5,10.54,34.32,34.32,0,0,1,0,26.59,32,32,0,0,1-7.5,10.59,33.93,33.93,0,0,1-11.36,7A40.55,40.55,0,0,1,613.73,661.71Zm0-17.36a14.26,14.26,0,0,0,5.6-1.09,13.42,13.42,0,0,0,4.54-3.14,14.36,14.36,0,0,0,3-5,21,21,0,0,0,0-13.36,14.36,14.36,0,0,0-3-5,13.56,13.56,0,0,0-4.54-3.14,14.9,14.9,0,0,0-11.19,0,13.56,13.56,0,0,0-4.54,3.14,14.21,14.21,0,0,0-3.05,5,21,21,0,0,0,0,13.36,14.21,14.21,0,0,0,3.05,5,13.42,13.42,0,0,0,4.54,3.14A14.22,14.22,0,0,0,613.73,644.35Z"/><path class="cls-9" d="M657.46,660.26V596.62H675.1l25.45,41.55h-9.27L716,596.62h17.64l.18,63.64H714.28l-.19-34.18h3.1l-16.91,28.45h-9.46l-17.63-28.45H677v34.18Z"/><path class="cls-10" d="M765.27,644.08h31.82v16.18H744.18V596.62h51.73v16.19H765.27Zm-1.45-23.82h28.36v15.45H763.82Z"/><path class="cls-11" d="M829.09,661.71a65.1,65.1,0,0,1-15.46-1.81,44.15,44.15,0,0,1-12.27-4.73l6.91-15.64a44.09,44.09,0,0,0,10.14,4.23,39.54,39.54,0,0,0,10.86,1.59,22.78,22.78,0,0,0,4.86-.41,5.54,5.54,0,0,0,2.59-1.18,2.45,2.45,0,0,0,.82-1.86,3,3,0,0,0-1.91-2.73,20,20,0,0,0-5-1.68c-2.09-.46-4.38-.94-6.86-1.46a62.43,62.43,0,0,1-7.5-2,29,29,0,0,1-6.91-3.37,15.64,15.64,0,0,1-5.05-5.5,17.21,17.21,0,0,1-1.91-8.5,18.7,18.7,0,0,1,3.32-10.77,22.64,22.64,0,0,1,9.91-7.77q6.58-2.91,16.41-2.91a59.62,59.62,0,0,1,12.72,1.36A40.24,40.24,0,0,1,856,600.72l-6.46,15.54a47.77,47.77,0,0,0-9.13-3.54,33.08,33.08,0,0,0-8.59-1.19,17.76,17.76,0,0,0-4.91.55,5.3,5.3,0,0,0-2.59,1.45,3,3,0,0,0-.78,2,2.89,2.89,0,0,0,1.91,2.59,20.9,20.9,0,0,0,5,1.6l6.91,1.36a55.44,55.44,0,0,1,7.5,2,29.75,29.75,0,0,1,6.86,3.36,16,16,0,0,1,5.05,5.46,16.76,16.76,0,0,1,1.9,8.36,18.55,18.55,0,0,1-3.31,10.68,23.05,23.05,0,0,1-9.87,7.82Q839,661.72,829.09,661.71Z"/><path class="cls-12" d="M466.85,530.5,366.81,447a17.25,17.25,0,0,0-22.1,0l-99.82,83.37a17.23,17.23,0,0,0-6.19,13.23v112a17.24,17.24,0,0,0,17.24,17.24H455.8A17.24,17.24,0,0,0,473,655.56V543.73A17.23,17.23,0,0,0,466.85,530.5ZM458,640.56A17.24,17.24,0,0,1,440.8,657.8H270.94a17.24,17.24,0,0,1-17.24-17.24V546.07a17.25,17.25,0,0,1,6.19-13.23L344.72,462a17.24,17.24,0,0,1,22.11,0l85,71A17.23,17.23,0,0,1,458,546.23Z"/><path class="cls-13" d="M487.77,518.63,361.09,409.22a8.32,8.32,0,0,0-10.88,0L298,454.36a2.1,2.1,0,0,1-3.47-1.59V438.39A5.38,5.38,0,0,0,289.1,433h-23a5.38,5.38,0,0,0-5.38,5.38v42.25a12.74,12.74,0,0,1-4.41,9.64l-32.85,28.38a6.44,6.44,0,0,0,8.42,9.74L350.18,426.26a8.33,8.33,0,0,1,10.89,0L479.32,528.4a6.44,6.44,0,0,0,8.42,0l0,0A6.45,6.45,0,0,0,487.77,518.63Z"/><path class="cls-14" d="M405.78,607.13c5.09-6.64,8.49-14,9.11-22.44,0-.58,0-1.17,0-2.05-1.14,1.26-2,2.33-3,3.26a34.69,34.69,0,0,1-16.24,8.34c-2.79.67-5.74.68-8.55,1.32-4.93,1.13-9.8,2.5-15,3.85,1-.52,1.79-1,2.59-1.33,7.1-3.26,14.17-6.59,21.32-9.74,12.47-5.51,21.56-14.54,27.88-26.47,2.73-5.14,4.78-10.53,4.78-16.48,0-7.31-3.82-11-11.12-13.61-1.91-.7-3.12.2-3.45,2.24a21.66,21.66,0,0,0-.23,4.1,31.54,31.54,0,0,1-4,16.64c-5.76,10.35-14.36,17.7-24.74,23.14a82.8,82.8,0,0,0-9.52,5.36,101.51,101.51,0,0,0-26,26.89,28.71,28.71,0,0,0-5,12.72A12.68,12.68,0,0,0,356,637.08a6.42,6.42,0,0,0,2.5-.3,137.73,137.73,0,0,0,21.72-9.1C390,622.46,398.93,616.07,405.78,607.13Z"/><path class="cls-15" d="M317.78,619.08a13.08,13.08,0,0,0,1.66,2.45c0-2.48,0-4.73-.08-7-.07-2.77.15-5.61-.36-8.3-1.32-7-4.65-13.21-8.71-19-3-4.25-6.37-8.22-9.6-12.3-5.3-6.69-6-13.61-1.77-21a39.1,39.1,0,0,1,5.78-7.69c4.74-4.89,9.89-9.38,14.06-14.81,2.73-3.55,5.2-7.34,9.07-10-.5,0-1,.05-1.5.11a71.32,71.32,0,0,0-24.25,7.17,47.6,47.6,0,0,0-18.29,15.78c-5.75,8.56-7.87,18.13-8,28.29a9.55,9.55,0,0,0,4.07,8,27.84,27.84,0,0,0,9.52,4.64c1.55.44,3.14.74,4.65,1.29,10.06,3.67,16.42,10.79,19.62,20.94C314.88,611.58,316.34,615.33,317.78,619.08Z"/><path class="cls-16" d="M402.94,555.58c2.48-6.14,3.3-12.6,3.6-19.16a8.17,8.17,0,0,0-1.18-4.59c-4-7-10.6-8.81-18.05-8.66-.85,0-2.22.48-2.39,1-.23.72.46,1.76.82,2.63a2.4,2.4,0,0,0,.65.74c1.77,1.65,3.48,3.36,5.32,4.91,3.26,2.75,3.67,6.23,1.2,9.63a63.22,63.22,0,0,0-8.39,14.61,8.37,8.37,0,0,1-6.07,5.58,27.51,27.51,0,0,1-3.32.77,44.18,44.18,0,0,0-14.07,4.71c-3.7,1.83-7.27,3.92-9.95,7.17a36.93,36.93,0,0,0-2.38,3.61c2.57,1.23,5.57.93,7.31-.81a19,19,0,0,1,12.48-5.45c3.34-.23,6.71,0,10.06-.07C390.27,572.08,398.58,566.41,402.94,555.58Z"/><path class="cls-17" d="M369.41,584.11A7.71,7.71,0,0,0,370,582c-.71-.15-1.42-.32-2.13-.45a2.77,2.77,0,0,0-.56.07c-4.86.32-9.73.89-14.59.89-8.24,0-16.35-1.06-23.95-4.62-8.63-4-13.83-10.65-15-20.22a6.86,6.86,0,0,1,0-1.28l-.5-.28a25.88,25.88,0,0,0-3.84,1.9c-3.42,2.47-5.44,8.77-4.29,12.83a27.75,27.75,0,0,0,27.5,20.6c5.29,0,10.59.34,15.89.44a53.29,53.29,0,0,0,8.76-.22C362.35,590.94,366.64,588.63,369.41,584.11Z"/><path class="cls-18" d="M342.59,515.44a40.22,40.22,0,0,1,5.3-.91c4.44-.24,8.37.87,11,4.84a1.55,1.55,0,0,0,2.2.63,16.71,16.71,0,0,1,2.39-.89c5.09-1.52,10.15-1.78,14.8,1.18a6.13,6.13,0,0,0,5.14.86c9.51-2.13,17.5,1.15,22.82,9.29,1.1,1.69,2,3.54,3,5.41a16.43,16.43,0,0,0-5-19.48A54.87,54.87,0,0,0,391,508.91c-14.09-5.87-28.09-6-41.83,1.1-2.95,1.53-5.65,3.53-8.46,5.32l.26.51C341.53,515.71,342.05,515.54,342.59,515.44Z"/><path class="cls-19" d="M354.07,596.1c-6.8.35-13.61.49-20.32,1.91a16.41,16.41,0,0,1-6,.12c-1.81-.31-3.49-1.36-5.25-2s-3.38-1.25-5.07-1.87l-.24.44.54,1.27c2.72,6.34,4.51,12.91,3.93,19.86a7.77,7.77,0,0,0,2.15,6.3,25.61,25.61,0,0,0,2.93,2.87c4.82,3.85,10.41,5.38,16.52,5.5-3.29-14,3.19-24.47,12.09-34.25A11.9,11.9,0,0,0,354.07,596.1Z"/><path class="cls-20" d="M320.34,553.49c.92,1.81,2,3.54,3,5.33a19.79,19.79,0,0,1,2.46,13.69,1.46,1.46,0,0,0,.2,1.15c.76.68,1.63,1.23,2.65,2,.15-.7.28-1.14.34-1.59.7-5.64,1.32-11.29,2.1-16.92a60.08,60.08,0,0,1,1.74-8.76c2.49-8.42,7-15.4,14.93-19.74a16.51,16.51,0,0,0,3.58-2.55,25,25,0,0,0,3.74-4.41c1.64-2.61.54-4.67-2.56-4.95a16.58,16.58,0,0,0-4.1.2c-11.88,2-20.85,8.47-27.16,18.56A17.42,17.42,0,0,0,320.34,553.49Z"/><path class="cls-21" d="M332.13,568.29c-.55,3.37.66,5.53,3.08,7.43l.46.34-.1.22c1.39.57,2.75,1.24,4.18,1.68a4.12,4.12,0,0,0,3.91-.45q9.79-7,19.7-13.91a1.79,1.79,0,0,0,.87-1.89c-.51-4.36-2.37-7.9-6.65-9.44-5.74-2.06-11.59-3.79-17.38-5.69-.87-.29-1.17.16-1.5.81A71.19,71.19,0,0,0,332.13,568.29Z"/><path class="cls-22" d="M345.22,636a9,9,0,0,0-6.57-1.1,9.54,9.54,0,0,1-6.87-1.06c-2.5-1.43-5-2.94-7.35-4.56q-8.74-6-17.39-12.05a7.19,7.19,0,0,1-3.3-5.22c-.2-1.74-.95-2.22-2.75-2.19-7.3.12-13.74,4-15.51,12-.33,1.52-.87,3-1.36,4.65.42-.11.82-.21,1.21-.33a49.4,49.4,0,0,1,14.81-2.44c10.82-.06,20.31,3.16,27.68,11.47a6.34,6.34,0,0,0,5.48,2.16c1-.08,2.07-.21,3.1-.39,3-.5,6-.93,8.49,1.39l1.51-1.51C346,636.57,345.61,636.27,345.22,636Z"/><path class="cls-23" d="M367.41,547.33c1.22,4.34,2.56,8.63,1.93,13.23a3.91,3.91,0,0,0,.12,1.12c3.59-.44,6.07-2.51,8.39-4.85,4.75-4.8,5.51-10.89,1.87-16.56a46,46,0,0,0-4-5.14,7.5,7.5,0,0,1-2.08-6.64,5.49,5.49,0,0,0-.14-1.49l-.45-.11a10.15,10.15,0,0,0-1.34,1.91c-.58,1.34-1,2.75-1.46,4.13-1.08,3.28-2.32,6.52-3.15,9.85A9.3,9.3,0,0,0,367.41,547.33Z"/><path class="cls-24" d="M420.26,611.29l-1.48,2.24a41,41,0,0,1-10.91,11.25A40.57,40.57,0,0,1,385,632,33.3,33.3,0,0,0,367,637.49c-.64.42-1.22.94-1.82,1.4l.17.47a21.5,21.5,0,0,0,2.28-.27c2.78-.59,5.52-1.54,8.32-1.77q9.19-.77,18.43-.9a20.38,20.38,0,0,0,13-4.59C413.92,626.47,417.51,619.17,420.26,611.29Z"/><path class="cls-25" d="M386.13,536a30.61,30.61,0,0,0-9.43-13.09c-1.85-1.47-4-2.35-6.36-1.62-7.06,2.17-13.78,5.05-19.49,9.87a34.44,34.44,0,0,0-2.88,3l.37.48a19.11,19.11,0,0,1,2.15-1.22c2.13-.89,4.22-2.17,6.44-2.46a21.5,21.5,0,0,0,11-5.15c1.09-.89,2.18-1.82,3.35-2.61,1.81-1.21,3.19-.75,3.86,1.29a17.78,17.78,0,0,1,.65,3.34,16.44,16.44,0,0,0,3.62,8.62,15.42,15.42,0,0,1,3.95,11.1,1.6,1.6,0,0,0,.17.51C386.7,544.59,387.77,540.14,386.13,536Z"/><path class="cls-26" d="M383.72,628.77c.06.15.11.3.16.45.77-.1,1.55-.14,2.3-.31,2.63-.59,5.25-1.26,7.88-1.82,12.39-2.66,21-9.93,26.23-21.37a14,14,0,0,0,.58-1.94l-.32-.18a12.6,12.6,0,0,0-1,.87,105.48,105.48,0,0,1-20.09,15.7c-4.2,2.63-8.74,4.71-13.11,7.06C385.42,627.7,384.58,628.26,383.72,628.77Z"/><path class="cls-27" d="M300.68,555.72A15.62,15.62,0,0,0,299,565.89a10.24,10.24,0,0,0,2.3,5,19.72,19.72,0,0,1,2.39-10.83,5.5,5.5,0,0,1,2-2.46c1.68-.72,2.3-2.13,3-3.51,1-1.84,1.94-3.69,2.77-5.59,1.12-2.54,2.11-5.13,3.15-7.7l-.47-.26C308.76,544.75,303.79,549.4,300.68,555.72Z"/><path class="cls-28" d="M367,532.17c-5.08,3.36-10.16,6.65-14.35,11.07-1.3,1.37-1.22,2.35.46,3.29,2.06,1.16,4.2,2.17,6.36,3.13a17.85,17.85,0,0,0,2.95.75C360.17,543.22,363.87,537.8,367,532.17Z"/><path class="cls-29" d="M312.1,612.68a24.22,24.22,0,0,0-8.36-13.21,3.85,3.85,0,0,0-.68-.48c-.63-.23-1.27-.42-1.91-.63a8.29,8.29,0,0,0,.15,1.88,34,34,0,0,0,8.7,14.27,9.26,9.26,0,0,0,1.85,1.11c.12-.74.26-1.49.36-2.24A2.13,2.13,0,0,0,312.1,612.68Z"/><path class="cls-30" d="M343.12,544.12a3.42,3.42,0,0,0,3.28-.75c3.11-2.21,6.28-4.32,9.44-6.47,2.48-1.69,5-3.37,7.47-5l-.21-.43c-1.77.64-3.52,1.31-5.29,1.9a48.2,48.2,0,0,0-12.43,6.1,17,17,0,0,0-2.95,2.61C341.57,543,341.89,543.72,343.12,544.12Z"/><path class="cls-31" d="M321.89,570c1.26,1.2,1.89,1,2.26-.76,1-4.72-2-8-4.23-11.49-.56,3.27-1,6.52.07,9.68A7.11,7.11,0,0,0,321.89,570Z"/><path class="cls-32" d="M362.57,579.08c4.61,1.37,8.64.16,12.79-1.51C372.48,575.62,365.8,576.39,362.57,579.08Z"/></svg>