<svg width="28" height="28" viewBox="0 0 28 28" fill="none" xmlns="http://www.w3.org/2000/svg">
<path d="M14.6364 6.68181C14.6364 2.99155 17.6279 0 21.3182 0C25.0084 0 28 2.99155 28 6.68182C28 10.3721 25.0084 13.3636 21.3182 13.3636H14.6364V6.68181Z" fill="#CBD973"/>
<path d="M13.3636 21.3182C13.3636 25.0085 10.3721 28 6.68183 28C2.99156 28 9.79827e-06 25.0084 1.01209e-05 21.3182C1.04435e-05 17.6279 2.99156 14.6364 6.68183 14.6364L13.3636 14.6364L13.3636 21.3182Z" fill="#CBD973"/>
<path d="M7.9545 13.3636C4.96714 13.3636 2.54541 10.9419 2.54541 7.95456C2.54541 4.9672 4.96714 2.54547 7.9545 2.54547C10.9419 2.54547 13.3636 4.9672 13.3636 7.95456L13.3636 13.3636L7.9545 13.3636Z" fill="#307560"/>
<path d="M20.0455 14.6364C23.0329 14.6364 25.4546 17.0581 25.4546 20.0454C25.4546 23.0328 23.0329 25.4545 20.0455 25.4545C17.0581 25.4545 14.6364 23.0328 14.6364 20.0454L14.6364 14.6364L20.0455 14.6364Z" fill="#307560"/>
</svg>
