<svg width="162" height="48" viewBox="0 0 162 48" fill="none" xmlns="http://www.w3.org/2000/svg">
<g clip-path="url(#clip0_309_455)">
<path d="M156 0H6.00037C2.68667 0 0.000396729 2.68628 0.000396729 5.99997V41.9998C0.000396729 45.3135 2.68667 47.9998 6.00037 47.9998H156C159.313 47.9998 162 45.3135 162 41.9998V5.99997C162 2.68628 159.313 0 156 0Z" fill="black"/>
<path d="M156 0.959755C157.336 0.961299 158.617 1.49283 159.562 2.43773C160.507 3.38263 161.038 4.66373 161.039 5.99997V41.9998C161.038 43.336 160.507 44.6171 159.562 45.562C158.617 46.5069 157.336 47.0384 156 47.04H6.00037C4.66411 47.0385 3.38303 46.5069 2.43818 45.562C1.49333 44.6171 0.961869 43.336 0.960392 41.9998V5.99997C0.961847 4.66371 1.4933 3.38259 2.43816 2.43769C3.38301 1.49279 4.66411 0.961273 6.00037 0.959755H156ZM156 0H6.00037C4.41051 0.00465369 2.88709 0.638286 1.76289 1.76249C0.638683 2.8867 0.00505042 4.41011 0.000396729 5.99997L0.000396729 41.9998C0.00505042 43.5896 0.638683 45.1131 1.76289 46.2373C2.88709 47.3615 4.41051 47.9951 6.00037 47.9998H156C157.589 47.9951 159.113 47.3615 160.237 46.2373C161.361 45.1131 161.995 43.5896 162 41.9998V5.99997C161.995 4.41011 161.361 2.8867 160.237 1.76249C159.113 0.638286 157.589 0.00465369 156 0Z" fill="#A6A6A6"/>
<path d="M56.9022 12.2919C56.924 12.7322 56.856 13.1724 56.7022 13.5856C56.5485 13.9988 56.3123 14.3764 56.0079 14.6954C55.6669 15.0491 55.255 15.3268 54.7992 15.5104C54.3434 15.6939 53.854 15.7792 53.363 15.7606C52.8689 15.765 52.3789 15.6706 51.9217 15.4829C51.4646 15.2953 51.0496 15.0181 50.7011 14.6678C50.3526 14.3174 50.0777 13.9009 49.8925 13.4428C49.7073 12.9847 49.6155 12.4942 49.6225 12.0001C49.6155 11.5059 49.7073 11.0154 49.8926 10.5573C50.0778 10.0991 50.3527 9.68263 50.7012 9.33224C51.0497 8.98185 51.4647 8.70464 51.9218 8.51688C52.3789 8.32913 52.8689 8.23462 53.363 8.23891C53.8711 8.23737 54.3741 8.34009 54.8408 8.54071C55.2743 8.71644 55.6602 8.99208 55.967 9.34518L55.3341 9.97854C55.093 9.69468 54.7898 9.47003 54.4481 9.32191C54.1063 9.17379 53.7351 9.10617 53.363 9.12427C52.9885 9.12233 52.6175 9.19599 52.2722 9.34084C51.9268 9.4857 51.6142 9.69876 51.3532 9.96727C51.0921 10.2358 50.8879 10.5542 50.7529 10.9035C50.6178 11.2528 50.5546 11.6258 50.5671 12.0001C50.5581 12.5607 50.7159 13.1113 51.0203 13.5822C51.3248 14.0531 51.7622 14.4229 52.2771 14.6448C52.792 14.8668 53.3612 14.9308 53.9126 14.8288C54.4639 14.7268 54.9726 14.4634 55.374 14.072C55.7435 13.6738 55.9576 13.1563 55.9775 12.6135H53.363V11.7487H56.8518C56.8848 11.9279 56.9016 12.1097 56.9022 12.2919Z" fill="white" stroke="white" stroke-width="0.2" stroke-miterlimit="10"/>
<path d="M62.4333 9.28466H59.1545V11.5674H62.1111V12.4324H59.1545V14.7151H62.4333V15.5999H58.2299V8.3999H62.4333V9.28466Z" fill="white" stroke="white" stroke-width="0.2" stroke-miterlimit="10"/>
<path d="M66.3345 15.5999H65.4087V9.28466H63.3978V8.3999H68.3455V9.28466H66.3345V15.5999Z" fill="white" stroke="white" stroke-width="0.2" stroke-miterlimit="10"/>
<path d="M71.9255 15.5999V8.3999H72.8501V15.5999H71.9255Z" fill="white" stroke="white" stroke-width="0.2" stroke-miterlimit="10"/>
<path d="M76.954 15.5999H76.0282V9.28466H74.0174V8.3999H78.9649V9.28466H76.954V15.5999Z" fill="white" stroke="white" stroke-width="0.2" stroke-miterlimit="10"/>
<path d="M88.3311 14.6694C87.6303 15.3681 86.6811 15.7605 85.6915 15.7605C84.7019 15.7605 83.7527 15.3681 83.0519 14.6694C82.7052 14.3183 82.4326 13.901 82.2504 13.4424C82.0682 12.9838 81.9801 12.4932 81.9913 11.9999C81.9801 11.5066 82.0682 11.016 82.2504 10.5574C82.4326 10.0988 82.7052 9.68156 83.0519 9.3304C83.3982 8.98393 83.8096 8.70916 84.2623 8.52185C84.715 8.33453 85.2002 8.23834 85.6901 8.23877C86.18 8.23921 86.6651 8.33626 87.1175 8.52438C87.5698 8.7125 87.9807 8.98799 88.3264 9.33508C88.6734 9.68531 88.9464 10.1017 89.1294 10.5594C89.3124 11.0172 89.4016 11.507 89.3917 11.9999C89.4026 12.4932 89.3143 12.9837 89.1321 13.4422C88.9499 13.9008 88.6776 14.3181 88.3311 14.6694ZM83.735 14.0665C84.254 14.5847 84.9575 14.8757 85.6909 14.8757C86.4243 14.8757 87.1277 14.5847 87.6468 14.0665C87.9129 13.794 88.1211 13.4704 88.2586 13.1152C88.3962 12.76 88.4603 12.3806 88.4471 11.9999C88.4603 11.6192 88.3962 11.2398 88.2586 10.8846C88.1211 10.5294 87.9129 10.2058 87.6468 9.93328C87.1277 9.41513 86.4243 9.12411 85.6909 9.12411C84.9575 9.12411 84.254 9.41513 83.735 9.93328C83.4692 10.206 83.2614 10.5297 83.1241 10.8849C82.9867 11.24 82.9227 11.6193 82.9358 11.9999C82.9227 12.3805 82.9867 12.7598 83.1241 13.115C83.2614 13.4701 83.4692 13.7938 83.735 14.0665Z" fill="white" stroke="white" stroke-width="0.2" stroke-miterlimit="10"/>
<path d="M90.6901 15.5999V8.3999H91.8163L95.3154 14.0009H95.3553L95.3154 12.6133V8.3999H96.2412V15.5999H95.2756L91.6146 9.72758H91.5748L91.6146 11.1151V15.5999H90.6901Z" fill="white" stroke="white" stroke-width="0.2" stroke-miterlimit="10"/>
<path d="M81.763 26.1021C80.7544 26.1059 79.7695 26.4085 78.9327 26.9717C78.096 27.5348 77.4448 28.3332 77.0615 29.2662C76.6781 30.1991 76.5798 31.2247 76.779 32.2134C76.9781 33.2022 77.4657 34.1098 78.1802 34.8216C78.8948 35.5335 79.8042 36.0177 80.7937 36.213C81.7833 36.4084 82.8085 36.3062 83.7399 35.9193C84.6714 35.5324 85.4674 34.8782 86.0273 34.0393C86.5873 33.2004 86.8861 32.2144 86.8861 31.2058C86.896 30.5312 86.7701 29.8615 86.5159 29.2365C86.2617 28.6116 85.8844 28.0441 85.4064 27.5679C84.9284 27.0918 84.3596 26.7166 83.7336 26.4648C83.1077 26.213 82.4375 26.0896 81.763 26.1021ZM81.763 34.299C81.1418 34.3433 80.5217 34.1996 79.9834 33.8865C79.4451 33.5734 79.0135 33.1056 78.7449 32.5438C78.4762 31.982 78.3829 31.3523 78.4771 30.7368C78.5713 30.1212 78.8486 29.5483 79.273 29.0926C79.6974 28.6368 80.2491 28.3194 80.8564 28.1817C81.4637 28.0439 82.0984 28.0922 82.6779 28.3202C83.2574 28.5483 83.7548 28.9455 84.1053 29.4601C84.4559 29.9748 84.6434 30.5831 84.6434 31.2058C84.6623 31.5992 84.6022 31.9924 84.4668 32.3623C84.3314 32.7321 84.1234 33.0711 83.855 33.3594C83.5866 33.6476 83.2632 33.8792 82.9039 34.0406C82.5446 34.202 82.1567 34.2899 81.763 34.299ZM70.5869 26.1021C69.5783 26.1059 68.5934 26.4085 67.7567 26.9716C66.9199 27.5347 66.2687 28.3331 65.8854 29.2661C65.502 30.199 65.4037 31.2246 65.6028 32.2134C65.8019 33.2021 66.2895 34.1098 67.0041 34.8216C67.7186 35.5335 68.628 36.0176 69.6176 36.213C70.6071 36.4084 71.6323 36.3062 72.5638 35.9193C73.4952 35.5324 74.2912 34.8782 74.8512 34.0393C75.4111 33.2004 75.71 32.2144 75.7099 31.2058C75.7199 30.5312 75.594 29.8615 75.3398 29.2365C75.0856 28.6116 74.7083 28.0441 74.2303 27.568C73.7524 27.0918 73.1835 26.7167 72.5576 26.4648C71.9317 26.213 71.2615 26.0897 70.5869 26.1021ZM70.5869 34.299C69.9658 34.3433 69.3457 34.1996 68.8074 33.8865C68.2691 33.5734 67.8375 33.1056 67.5688 32.5438C67.3002 31.982 67.2069 31.3523 67.3011 30.7368C67.3953 30.1212 67.6726 29.5483 68.097 29.0926C68.5214 28.6368 69.0731 28.3194 69.6804 28.1817C70.2877 28.0439 70.9224 28.0922 71.5019 28.3202C72.0813 28.5483 72.5787 28.9455 72.9293 29.4601C73.2799 29.9748 73.4674 30.5831 73.4674 31.2058C73.4863 31.5992 73.4262 31.9924 73.2908 32.3623C73.1554 32.7321 72.9474 33.0712 72.679 33.3594C72.4106 33.6476 72.0872 33.8793 71.7279 34.0406C71.3686 34.202 70.9807 34.2899 70.5869 34.299ZM57.2924 27.6681V29.8333H62.4736C62.3989 30.8488 61.9833 31.8094 61.2943 32.5592C60.7751 33.0884 60.1507 33.5029 59.4614 33.7759C58.7721 34.049 58.0332 34.1745 57.2924 34.1444C55.778 34.1239 54.3326 33.5079 53.2689 32.4297C52.2052 31.3515 51.6089 29.8979 51.6089 28.3833C51.6089 26.8687 52.2052 25.4151 53.2689 24.3369C54.3326 23.2587 55.778 22.6428 57.2924 22.6223C58.7471 22.6032 60.1505 23.159 61.1977 24.1688L62.7249 22.6416C62.0104 21.9342 61.1618 21.3766 60.229 21.0015C59.2961 20.6263 58.2978 20.4412 57.2924 20.457C56.2418 20.4417 55.1987 20.6354 54.2236 21.0269C53.2485 21.4183 52.361 21.9998 51.6126 22.7373C50.8643 23.4748 50.27 24.3538 49.8644 25.3231C49.4588 26.2923 49.2499 27.3326 49.2499 28.3833C49.2499 29.434 49.4588 30.4743 49.8644 31.4435C50.27 32.4128 50.8643 33.2918 51.6126 34.0293C52.361 34.7669 53.2485 35.3483 54.2236 35.7397C55.1987 36.1312 56.2418 36.3249 57.2924 36.3096C58.319 36.3522 59.3428 36.176 60.2961 35.7927C61.2494 35.4094 62.1102 34.8278 62.8215 34.0864C64.0844 32.7079 64.7576 30.8899 64.6969 29.0213C64.7018 28.5676 64.6629 28.1144 64.5807 27.6681H57.2924ZM111.662 29.3499C111.355 28.4255 110.772 27.6179 109.99 27.0368C109.208 26.4557 108.267 26.1294 107.293 26.1021C106.637 26.1062 105.989 26.2432 105.388 26.5048C104.786 26.7665 104.244 27.1473 103.795 27.6244C103.345 28.1014 102.996 28.6648 102.77 29.2804C102.544 29.8959 102.445 30.5509 102.479 31.2058C102.465 31.8768 102.585 32.5439 102.834 33.1673C103.083 33.7906 103.455 34.3574 103.927 34.8338C104.4 35.3102 104.964 35.6865 105.586 35.94C106.207 36.1936 106.873 36.3193 107.544 36.3096C108.385 36.3143 109.214 36.11 109.956 35.7153C110.699 35.3205 111.331 34.7475 111.797 34.0478L110.057 32.8878C109.797 33.3207 109.428 33.6784 108.988 33.9258C108.547 34.1732 108.05 34.3018 107.544 34.299C107.024 34.3189 106.51 34.1821 106.069 33.9063C105.628 33.6306 105.28 33.2286 105.07 32.7525L111.894 29.93L111.662 29.3499ZM104.703 31.0513C104.678 30.6798 104.729 30.3073 104.85 29.9555C104.972 29.6037 105.163 29.2797 105.411 29.0024C105.66 28.7252 105.961 28.5003 106.297 28.3409C106.634 28.1815 106.998 28.0908 107.37 28.0741C107.757 28.0486 108.144 28.1377 108.481 28.3302C108.817 28.5227 109.09 28.8102 109.265 29.1567L104.703 31.0513ZM99.154 36.0003H101.397V20.9984H99.154V36.0003ZM95.4808 27.2427H95.4035C95.0626 26.8723 94.6465 26.5789 94.1831 26.3822C93.7196 26.1855 93.2196 26.09 92.7163 26.1021C91.4002 26.1581 90.1567 26.7203 89.2453 27.6713C88.3339 28.6223 87.8251 29.8887 87.8251 31.2059C87.8251 32.5231 88.3339 33.7894 89.2453 34.7404C90.1567 35.6914 91.4002 36.2536 92.7163 36.3096C93.2215 36.3231 93.7237 36.2263 94.1878 36.026C94.6519 35.8256 95.0667 35.5266 95.4035 35.1497H95.4808V35.8843C95.4808 37.837 94.4369 38.8809 92.7549 38.8809C92.1943 38.8674 91.6505 38.6874 91.1926 38.3638C90.7347 38.0402 90.3835 37.5875 90.1838 37.0636L88.2312 37.8756C88.5992 38.7716 89.2263 39.5373 90.0323 40.0746C90.8382 40.6119 91.7863 40.8963 92.7549 40.8914C95.3842 40.8914 97.6074 39.3449 97.6074 35.575V26.4114H95.4808V27.2427ZM92.9097 34.299C92.1346 34.2333 91.4124 33.879 90.8861 33.3061C90.3598 32.7333 90.0677 31.9838 90.0677 31.2059C90.0677 30.428 90.3598 29.6784 90.8861 29.1056C91.4124 28.5328 92.1346 28.1784 92.9097 28.1127C93.2953 28.1315 93.6732 28.2278 94.0208 28.3958C94.3685 28.5638 94.6787 28.8 94.9331 29.0905C95.1874 29.3809 95.3807 29.7196 95.5014 30.0864C95.6221 30.4531 95.6677 30.8404 95.6355 31.2251C95.6656 31.6075 95.6184 31.992 95.4965 32.3557C95.3746 32.7193 95.1806 33.0547 94.9262 33.3416C94.6717 33.6286 94.362 33.8613 94.0155 34.0258C93.669 34.1903 93.2929 34.2832 92.9097 34.299ZM122.167 20.9987H116.801V36.0003H119.04V30.3166H122.167C122.8 30.3513 123.434 30.2566 124.029 30.0381C124.625 29.8197 125.169 29.4821 125.63 29.0461C126.091 28.61 126.457 28.0847 126.708 27.5021C126.959 26.9195 127.088 26.2919 127.088 25.6576C127.088 25.0234 126.959 24.3958 126.708 23.8132C126.457 23.2306 126.091 22.7052 125.63 22.2692C125.169 21.8332 124.625 21.4956 124.029 21.2772C123.434 21.0587 122.8 20.9639 122.167 20.9987ZM122.225 28.2289H119.04V23.0865H122.225C122.567 23.0794 122.907 23.1407 123.225 23.2667C123.543 23.3928 123.833 23.581 124.077 23.8205C124.322 24.0599 124.516 24.3458 124.649 24.6612C124.781 24.9767 124.85 25.3155 124.85 25.6577C124.85 25.9999 124.781 26.3387 124.649 26.6541C124.516 26.9696 124.322 27.2555 124.077 27.4949C123.833 27.7344 123.543 27.9226 123.225 28.0487C122.907 28.1747 122.567 28.236 122.225 28.2289ZM136.063 26.0745C135.245 26.0268 134.432 26.2187 133.722 26.6267C133.013 27.0347 132.437 27.641 132.067 28.3712L134.055 29.2011C134.252 28.8387 134.551 28.5416 134.914 28.3462C135.278 28.1508 135.69 28.0656 136.101 28.1009C136.669 28.0455 137.236 28.2175 137.677 28.5793C138.119 28.9411 138.399 29.4631 138.456 30.0309V30.1853C137.737 29.8033 136.935 29.6045 136.12 29.6063C133.978 29.6063 131.797 30.7837 131.797 32.9838C131.818 33.4475 131.932 33.9023 132.132 34.3212C132.332 34.7401 132.614 35.1145 132.961 35.4224C133.309 35.7302 133.714 35.9651 134.154 36.1131C134.594 36.2611 135.059 36.3192 135.522 36.2841C136.086 36.3173 136.648 36.1987 137.151 35.9407C137.653 35.6828 138.077 35.2948 138.379 34.8173H138.456V35.9753H140.617V30.224C140.617 27.5606 138.629 26.0745 136.063 26.0745ZM135.792 34.2962C135.059 34.2962 134.036 33.9296 134.036 33.0224C134.036 31.8645 135.31 31.4205 136.41 31.4205C137.125 31.4015 137.831 31.5748 138.456 31.9223C138.373 32.573 138.058 33.1719 137.569 33.6083C137.079 34.0447 136.448 34.289 135.792 34.2962ZM148.492 26.4026L145.925 32.9066H145.847L143.184 26.4026H140.772L144.767 35.4928L142.489 40.5493H144.825L150.981 26.4026H148.492ZM128.323 36.0003H130.562V20.9987H128.323V36.0003Z" fill="white"/>
<path d="M12.5227 9.04562C12.1292 9.5161 11.9305 10.1192 11.9673 10.7315V37.2707C11.9304 37.8829 12.1291 38.4861 12.5227 38.9565L12.6115 39.0431L27.4782 24.1765V23.8257L12.6115 8.9585L12.5227 9.04562Z" fill="url(#paint0_linear_309_455)"/>
<path d="M32.4335 29.134L27.4782 24.1764V23.8256L32.4347 18.8691L32.5464 18.9329L38.4177 22.269C40.0948 23.2218 40.0948 24.7808 38.4177 25.7342L32.5464 29.0703L32.4335 29.134Z" fill="url(#paint1_linear_309_455)"/>
<path d="M32.5464 29.0696L27.4782 24.001L12.5227 38.9564C12.8644 39.2578 13.3008 39.4301 13.7563 39.4436C14.2117 39.457 14.6575 39.3107 15.0164 39.0301L32.5464 29.0696Z" fill="url(#paint2_linear_309_455)"/>
<path d="M32.5464 18.9324L15.0164 8.97199C14.6575 8.6913 14.2117 8.54501 13.7563 8.55847C13.3008 8.57193 12.8644 8.74428 12.5227 9.04567L27.4782 24.0012L32.5464 18.9324Z" fill="url(#paint3_linear_309_455)"/>
<path opacity="0.2" d="M32.4347 28.9585L15.0164 38.8552C14.6713 39.1179 14.2501 39.2613 13.8164 39.2636C13.3827 39.2659 12.96 39.1271 12.6121 38.868L12.5227 38.9574L12.6115 39.044L12.6121 39.0434C12.9599 39.3025 13.3827 39.4414 13.8164 39.4391C14.2502 39.4368 14.6714 39.2934 15.0164 39.0305L32.5464 29.0701L32.4347 28.9585Z" fill="black"/>
<path opacity="0.12" d="M12.5227 38.7821C12.1292 38.3116 11.9306 37.7084 11.9673 37.0962V37.2715C11.9305 37.8838 12.1292 38.4869 12.5227 38.9574L12.6121 38.868L12.5227 38.7821Z" fill="black"/>
<path opacity="0.12" d="M38.4177 25.5582L32.4347 28.958L32.5464 29.0696L38.4177 25.7335C38.7631 25.5837 39.062 25.3439 39.2832 25.0393C39.5045 24.7346 39.64 24.3763 39.6757 24.0015C39.6014 24.3409 39.4491 24.6583 39.2307 24.9285C39.0123 25.1988 38.734 25.4144 38.4177 25.5582Z" fill="black"/>
<path opacity="0.25" d="M15.0164 9.14811L38.4177 22.444C38.7341 22.5879 39.0126 22.8035 39.231 23.0739C39.4493 23.3442 39.6016 23.6618 39.6757 24.0014C39.6402 23.6264 39.5048 23.2679 39.2836 22.9631C39.0623 22.6583 38.7633 22.4185 38.4177 22.2687L15.0164 8.97279C13.3393 8.01987 11.9673 8.81139 11.9673 10.7323V10.9077C11.9673 8.98683 13.3393 8.19531 15.0164 9.14811Z" fill="white"/>
</g>
<defs>
<linearGradient id="paint0_linear_309_455" x1="26.1598" y1="10.4517" x2="6.02105" y2="30.5905" gradientUnits="userSpaceOnUse">
<stop stop-color="#00A0FF"/>
<stop offset="0.00657" stop-color="#00A1FF"/>
<stop offset="0.2601" stop-color="#00BEFF"/>
<stop offset="0.5122" stop-color="#00D2FF"/>
<stop offset="0.7604" stop-color="#00DFFF"/>
<stop offset="1" stop-color="#00E3FF"/>
</linearGradient>
<linearGradient id="paint1_linear_309_455" x1="40.6013" y1="24.0016" x2="11.5652" y2="24.0016" gradientUnits="userSpaceOnUse">
<stop stop-color="#FFE000"/>
<stop offset="0.4087" stop-color="#FFBD00"/>
<stop offset="0.7754" stop-color="#FFA500"/>
<stop offset="1" stop-color="#FF9C00"/>
</linearGradient>
<linearGradient id="paint2_linear_309_455" x1="29.7925" y1="26.7551" x2="2.48268" y2="54.0649" gradientUnits="userSpaceOnUse">
<stop stop-color="#FF3A44"/>
<stop offset="1" stop-color="#C31162"/>
</linearGradient>
<linearGradient id="paint3_linear_309_455" x1="8.75704" y1="0.211525" x2="20.952" y2="12.4065" gradientUnits="userSpaceOnUse">
<stop stop-color="#32A071"/>
<stop offset="0.0685" stop-color="#2DA771"/>
<stop offset="0.4762" stop-color="#15CF74"/>
<stop offset="0.8009" stop-color="#06E775"/>
<stop offset="1" stop-color="#00F076"/>
</linearGradient>
<clipPath id="clip0_309_455">
<rect width="161.999" height="48" fill="white" transform="translate(0.000396729)"/>
</clipPath>
</defs>
</svg>
