<svg width="14" height="14" viewBox="0 0 14 14" fill="none" xmlns="http://www.w3.org/2000/svg">
<path d="M13.69 3.31687V0.983541C13.69 0.828831 13.6286 0.680458 13.5192 0.571061C13.4098 0.461665 13.2614 0.400208 13.1067 0.400208H1.44002C1.28531 0.400208 1.13694 0.461665 1.02754 0.571061C0.918147 0.680458 0.856689 0.828831 0.856689 0.983541V3.31687H13.69Z" fill="#CBD973"/>
<path d="M0.856567 4.48352V12.6502C0.856567 12.8049 0.918025 12.9533 1.02742 13.0627C1.13682 13.1721 1.28519 13.2335 1.4399 13.2335H4.35657V4.48352H0.856567Z" fill="#4C00DE" fill-opacity="0.8"/>
<path d="M5.52319 13.2335H13.1065C13.2612 13.2335 13.4096 13.1721 13.519 13.0627C13.6284 12.9533 13.6899 12.8049 13.6899 12.6502V4.48352H5.52319V13.2335Z" fill="#4C00DE"/>
</svg>
