<svg width="14" height="15" viewBox="0 0 14 15" fill="none" xmlns="http://www.w3.org/2000/svg">
<g clip-path="url(#clip0_211_4053)">
<path d="M12.2243 14.117H7.23679C7.08981 14.117 6.94886 14.0586 6.84493 13.9547C6.741 13.8508 6.68262 13.7098 6.68262 13.5628V12.4545C6.68262 12.3075 6.741 12.1666 6.84493 12.0626C6.94886 11.9587 7.08981 11.9003 7.23679 11.9003H12.2243C12.3713 11.9003 12.5123 11.9587 12.6162 12.0626C12.7201 12.1666 12.7785 12.3075 12.7785 12.4545V13.5628C12.7785 13.7098 12.7201 13.8508 12.6162 13.9547C12.5123 14.0586 12.3713 14.117 12.2243 14.117Z" fill="#4C00DE" fill-opacity="0.8"/>
<path d="M12.2243 0.816895H2.24924C2.10226 0.816895 1.96131 0.87528 1.85738 0.979207C1.75345 1.08313 1.69507 1.22409 1.69507 1.37107V2.47941C1.69507 2.62638 1.75345 2.76734 1.85738 2.87127C1.96131 2.97519 2.10226 3.03358 2.24924 3.03358H12.2243C12.3713 3.03358 12.5122 2.97519 12.6162 2.87127C12.7201 2.76734 12.7785 2.62638 12.7785 2.47941V1.37107C12.7785 1.22409 12.7201 1.08313 12.6162 0.979207C12.5122 0.87528 12.3713 0.816895 12.2243 0.816895Z" fill="#CBD973"/>
<path d="M12.2243 4.14191H2.24924C2.10226 4.14191 1.96131 4.20029 1.85738 4.30422C1.75345 4.40815 1.69507 4.5491 1.69507 4.69608V10.2378C1.69507 10.3848 1.75345 10.5257 1.85738 10.6296C1.96131 10.7336 2.10226 10.792 2.24924 10.792H12.2243C12.3713 10.792 12.5122 10.7336 12.6162 10.6296C12.7201 10.5257 12.7785 10.3848 12.7785 10.2378V4.69608C12.7785 4.5491 12.7201 4.40815 12.6162 4.30422C12.5122 4.20029 12.3713 4.14191 12.2243 4.14191Z" fill="#4C00DE"/>
</g>
<defs>
<clipPath id="clip0_211_4053">
<rect width="13.3001" height="13.3001" fill="white" transform="translate(0.58667 0.816895)"/>
</clipPath>
</defs>
</svg>
