<svg width="15" height="15" viewBox="0 0 15 15" fill="none" xmlns="http://www.w3.org/2000/svg">
<g clip-path="url(#clip0_211_4032)">
<path d="M10.7734 6.18331H14.2734L12.5234 3.84998L10.7734 6.18331ZM10.7734 8.51664H14.2734L12.5234 10.85L10.7734 8.51664Z" fill="#4C00DE" fill-opacity="0.8"/>
<path d="M0.856649 0.349976H4.35665V14.35H0.856649C0.701939 14.35 0.553566 14.2885 0.444169 14.1791C0.334773 14.0697 0.273315 13.9214 0.273315 13.7666V0.933309C0.273315 0.778599 0.334773 0.630226 0.444169 0.52083C0.553566 0.411433 0.701939 0.349976 0.856649 0.349976Z" fill="#4C00DE"/>
<path d="M5.52332 0.349976H9.02332C9.17803 0.349976 9.3264 0.411433 9.43579 0.52083C9.54519 0.630226 9.60665 0.778599 9.60665 0.933309V13.7666C9.60665 13.9214 9.54519 14.0697 9.43579 14.1791C9.3264 14.2885 9.17803 14.35 9.02332 14.35H5.52332V0.349976Z" fill="#CBD973"/>
</g>
<defs>
<clipPath id="clip0_211_4032">
<rect width="14" height="14" fill="white" transform="translate(0.273315 0.349976)"/>
</clipPath>
</defs>
</svg>
